<svg width="1365" height="1424" viewBox="0 0 1365 1424" fill="none" xmlns="http://www.w3.org/2000/svg">
<g id="Group" filter="url(#filter0_d)">
<g id="Layer 2">
<g id="Layer 1">
<g id="women-behind">
<path id="Vector" fill-rule="evenodd" clip-rule="evenodd" d="M714.273 337.338C727.974 363.434 762.046 422.268 774.077 448.421C784.697 450.625 795.443 444.526 796.38 436.318C788.656 411.238 776.104 369.951 769.848 356.784C765.744 348.092 758.078 336.483 751.165 327.638C771.441 299.775 803.467 255.904 812.726 230.197C825.277 195.218 810.862 175.258 791.485 164.267C784.581 160.362 777.157 166.623 773.652 162.433C765.339 178.346 757.856 199.977 753.029 219.452C746.27 246.594 714.032 304.183 711.599 323.553C711.23 327.309 711.898 331.093 713.53 334.507C713.704 335.419 713.955 336.359 714.273 337.338Z" fill="url(#paint0_linear)"/>
<path id="Vector_2" fill-rule="evenodd" clip-rule="evenodd" d="M835.814 323.097C836.606 323.553 837.687 323.886 838.952 324.532C843.074 334.307 844.639 337.176 843.828 338.155C843.161 338.943 843.239 338.516 842.862 340.482C842.379 343.161 851.928 354.732 853.396 358.437C854.761 361.53 854.882 365.017 853.734 368.194C851.508 374.448 848.053 380.209 843.567 385.151C839.782 389.341 835.601 392.001 831.981 391.203C827.51 390.253 828.273 386.263 828.939 382.358C829.181 380.962 831.836 377.874 831.672 376.506C830.475 368.678 824.653 361.848 820.385 355.074C816.716 351.721 810.547 348.196 807.129 344.311C802.195 338.706 801.258 332.806 807.389 329.367C809.32 328.275 814.264 322.822 816.793 323.031C821.621 323.42 829.712 319.582 835.814 323.097Z" fill="#202249"/>
<path id="Vector_3" fill-rule="evenodd" clip-rule="evenodd" d="M670.684 300.668C667.362 309.569 669.95 317.464 677.21 320.855L677.355 320.998L678.243 321.292C679.016 321.594 679.81 321.842 680.619 322.033C689.308 324.57 702.323 326.878 710.269 328.37C741.976 334.326 789.219 338.05 811.406 346.42C820.095 340.121 822.693 328.446 816.996 321.444C792.791 310.092 760.099 295.348 746.389 290.351C742.689 289.161 738.83 288.521 734.938 288.451C755.368 270.325 777.005 250.698 785.405 233.968C791.352 222.131 792.318 205.687 796.45 195.398C763.111 205.003 756.729 185.205 750.598 178.241C745.356 185.841 745.481 184.416 740.161 192.491C722.184 219.88 695.671 258.716 677.645 287.567C674.681 291.652 671.852 296.507 670.684 300.668Z" fill="url(#paint1_linear)"/>
<g id="Vector_4" style={{mixBlendMode: 'multiply'}} opacity="0.3">
<path fill-rule="evenodd" clip-rule="evenodd" d="M779.486 304.249C765.882 298.188 753.543 292.925 746.389 290.313C742.689 289.123 738.83 288.483 734.938 288.413C755.368 270.287 777.005 250.66 785.405 233.93C791.352 222.093 792.318 205.649 796.45 195.36C787.066 198.068 779.805 198.438 774.099 197.422L774.997 203.825C749.266 229.028 702.478 287.605 698.133 325.862C713.861 329.462 756.816 334.887 763.7 335.647C765.496 324.294 773.027 315.26 779.486 304.24V304.249ZM756.034 185.68C753.871 182.83 752.23 180.065 750.598 178.213C747.258 183.039 746.099 184.217 744.323 186.535L756.034 185.68Z" fill="#1E2353"/>
</g>
<path id="Vector_5" fill-rule="evenodd" clip-rule="evenodd" d="M775.325 450.112C780.008 456.496 767.379 488.568 764.309 495.323C761.595 501.279 762.455 504.937 768.875 505.032C773.925 505.108 781.958 498.059 786.853 493.442C796.025 484.797 796.508 475.981 799.212 472.228L802.34 471.278C804.628 470.005 811.387 461.322 811.753 458.035C810.8 454.984 809.635 452 808.268 449.105C803.286 440.042 802.185 444.004 795.61 438.465C788.099 443.776 793.428 445.913 775.325 450.112Z" fill="#202249"/>
</g>
<g id="enitre-group">
<g id="Vector_6" style="mix-blend-mode:multiply" opacity="0.35">
<path fill-rule="evenodd" clip-rule="evenodd" d="M1258.52 1377.96L326.133 861.956C314.364 856.674 297.072 851.706 285.534 858.641L255.999 876.387C250.051 879.959 230.519 891.805 243.583 898.778C282.068 919.298 1142.95 1398.4 1182 1419.3C1189.37 1423.24 1200.18 1424.66 1211.51 1423.72C1222.85 1422.78 1234.53 1419.76 1243.49 1414.31L1255.29 1407.13C1263.63 1402.06 1268.24 1396.52 1268.69 1391.22C1269.13 1385.92 1265.74 1381.19 1258.52 1377.96Z" fill="#59CAAF"/>
</g>
<path id="Vector_7" fill-rule="evenodd" clip-rule="evenodd" d="M433.092 21.1778C426.671 17.5868 419.131 16.2473 412.073 18.8693L396.297 24.9303C390.571 54.1048 1208.77 1392.54 1216.09 1399.96L1230.17 1394.73C1239.41 1391.14 1244.27 1381.67 1245.62 1372.47L1364.52 573.916V573.802C1366.46 560.369 1362.36 546.385 1354.87 535.166C1350.82 529.124 1345.51 523.576 1338.99 520.099L433.092 21.1778Z" fill="url(#paint2_linear)"/>
<path id="Vector_8" fill-rule="evenodd" clip-rule="evenodd" d="M1323.42 526.036L417.538 27.0868C400.41 17.7388 384.093 26.7068 381.061 47.0368L262.169 845.607C259.137 865.946 270.53 890.029 287.658 899.367L1193.5 1398.32C1210.64 1407.66 1227 1398.72 1230.02 1378.37L1348.95 579.816C1351.99 559.486 1340.55 535.384 1323.42 526.036Z" fill="url(#paint3_linear)"/>
<path id="Vector_9" fill-rule="evenodd" clip-rule="evenodd" d="M1323.42 526.036L417.538 27.0868C400.41 17.7388 384.093 26.7068 381.061 47.0368L377.054 73.9693L1344.91 607.052L1348.96 579.806C1351.99 559.486 1340.55 535.384 1323.42 526.036Z" fill="#4A9FF8"/>
<path id="Vector_10" fill-rule="evenodd" clip-rule="evenodd" d="M411.909 46.9608C418.783 48.5093 424.055 56.5558 423.698 64.9348C423.34 73.3138 417.47 78.8618 410.605 77.2848C403.741 75.7078 398.459 67.6898 398.817 59.3108C399.174 50.9318 405.034 45.4123 411.909 46.9608Z" fill="#5858F0"/>
<path id="Vector_11" fill-rule="evenodd" clip-rule="evenodd" d="M443.191 64.6022C450.066 66.1887 455.337 74.2352 454.98 82.6522C454.623 91.0692 448.752 96.5792 441.888 95.0022C435.023 93.4252 429.79 85.3977 430.099 77.0187C430.408 68.6397 436.326 63.0917 443.191 64.6022Z" fill="#5858F0"/>
<path id="Vector_12" fill-rule="evenodd" clip-rule="evenodd" d="M477.042 84.0583C483.916 85.6068 489.188 93.6533 488.831 102.032C488.473 110.411 482.603 115.959 475.738 114.382C468.874 112.805 463.583 104.816 463.95 96.4368C464.316 88.0578 470.177 82.5098 477.042 84.0583Z" fill="#5858F0"/>
</g>
<g id="bottom-left-cog">
<path id="Vector_13" fill-rule="evenodd" clip-rule="evenodd" d="M547.157 759.319L520.799 929.673L524.979 930.167L536.391 925.816C548.943 920.961 555.46 908.146 557.295 895.691L576.682 747.966C576.686 747.929 576.686 747.89 576.682 747.852C579.299 729.679 573.785 710.802 563.599 695.602C558.202 687.394 550.961 679.918 542.127 675.168L84.8922 425.821C76.2027 420.957 66.0069 419.171 56.4581 422.696L46.3975 426.562C41.3383 428.462 39.7742 429.925 39.8031 430.239C44.5534 473.768 553.819 714.659 547.157 759.319Z" fill="#D0E7FF"/>
<path id="Vector_14" fill-rule="evenodd" clip-rule="evenodd" d="M530.618 679.642L73.4027 430.277C63.2359 424.729 53.2912 423.95 44.9782 427.142C34.3576 431.217 26.344 441.829 24.0461 457.285L4.65871 605.01C0.564965 632.56 15.9744 665.117 39.1562 677.752L496.41 927.127C519.582 939.771 541.721 927.659 545.815 900.147L565.202 752.412C569.277 724.91 553.799 692.268 530.618 679.642Z" fill="url(#paint4_linear)"/>
<path id="Vector_15" opacity="0.5" fill-rule="evenodd" clip-rule="evenodd" d="M525.192 725.622L209.655 554.85C208.657 554.235 207.532 553.848 206.362 553.719C205.193 553.589 204.008 553.719 202.896 554.1C200.347 555.05 198.445 557.615 197.885 561.31L196.138 571.675C195.172 578.249 198.841 586.039 204.383 589.06L519.901 759.832C525.443 762.853 530.734 759.955 531.709 753.381L533.456 743.017C534.422 736.443 530.734 728.643 525.192 725.622V725.622ZM349.47 765.788C355.012 768.809 358.719 776.609 357.734 783.183L355.996 793.557C355.031 800.131 349.73 803.057 344.179 799.998L185.517 715.951C179.975 712.93 176.287 705.14 177.262 698.566L179.01 688.202C179.56 684.506 181.462 681.96 184.011 680.991C185.123 680.612 186.306 680.482 187.475 680.611C188.645 680.739 189.77 681.122 190.77 681.732L349.46 765.788H349.47ZM515.72 789.063C521.262 792.084 524.96 799.884 523.975 806.458L522.237 816.832C521.272 823.406 515.971 826.332 510.429 823.282L194.921 652.501C189.379 649.489 185.691 641.69 186.676 635.116L188.414 624.751C188.964 621.056 190.876 618.519 193.415 617.541C194.528 617.166 195.711 617.039 196.88 617.169C198.049 617.298 199.174 617.682 200.174 618.291L515.72 789.063Z" fill="#FFFCF1"/>
<path id="Vector_16" opacity="0.5" fill-rule="evenodd" clip-rule="evenodd" d="M109.088 551.829C94.161 543.688 78.3364 554.679 78.5005 575.912C78.5681 586.903 83.3281 598.218 90.7914 605.362C92.6028 607.1 94.6342 608.6 96.8355 609.827C111.733 617.949 127.481 606.977 127.374 585.83C127.374 574.819 122.624 563.448 115.18 556.38C113.351 554.635 111.304 553.125 109.088 551.886V551.829ZM94.7596 619.754C91.8039 618.113 89.0749 616.105 86.6397 613.779C76.5599 604.279 70.2262 589.012 70.1006 574.221C69.9269 545.721 91.168 530.92 111.222 541.854C114.222 543.519 116.987 545.563 119.448 547.934C129.489 557.434 135.803 572.634 135.861 587.483C135.987 615.897 114.775 630.679 94.75 619.783L94.7596 619.754ZM163.069 595.539C166.564 597.439 168.64 602.445 167.694 606.749L164.054 623.44C163.088 627.696 159.535 629.606 156.04 627.706L154.254 626.756C153.669 626.401 153.017 626.168 152.337 626.071C151.657 625.975 150.964 626.017 150.301 626.195C149.638 626.373 149.019 626.684 148.484 627.107C147.948 627.53 147.506 628.058 147.187 628.656C146.193 630.296 145.11 631.881 143.942 633.406C142.127 635.752 141.828 639.495 143.218 642.849L144.184 645.11C145.98 649.423 144.908 654.344 141.809 655.997L129.518 662.523C128.743 662.917 127.879 663.108 127.008 663.076C126.136 663.045 125.288 662.792 124.545 662.343C122.709 661.248 121.303 659.574 120.558 657.593L119.592 655.379C118.843 653.437 117.452 651.797 115.644 650.724C114.745 650.22 113.724 649.964 112.689 649.983C110.961 649.983 109.194 649.926 107.446 649.765C104.637 649.499 102.291 651.456 101.576 654.724L101.113 656.899C100.147 661.146 96.5941 663.055 93.099 661.155L79.3116 653.707C75.8164 651.807 73.7406 646.801 74.6675 642.545L75.1502 640.369C75.4723 638.672 75.398 636.924 74.933 635.258C74.468 633.593 73.6245 632.053 72.4661 630.755C70.9986 629.159 69.5696 627.506 68.2565 625.815C67.5551 624.879 66.6642 624.097 65.64 623.516C64.9036 623.074 64.0641 622.825 63.2019 622.794C62.3398 622.762 61.4838 622.949 60.7159 623.336L59.1035 624.153C58.33 624.548 57.4657 624.74 56.5945 624.71C55.7233 624.68 54.8748 624.429 54.1312 623.982C52.2947 622.887 50.8891 621.213 50.1437 619.232L43.0279 602.132C41.232 597.819 42.3134 592.907 45.403 591.254L47.0251 590.39C49.4388 589.107 50.665 585.868 50.1533 582.258C49.825 579.959 49.5901 577.657 49.4485 575.351C49.2264 571.798 47.3147 568.426 44.621 566.963L42.8348 566.013C39.3397 564.113 37.2638 559.106 38.1907 554.85L41.8403 538.159C42.8058 533.855 46.3685 531.946 49.8637 533.855L51.6498 534.805C52.2334 535.162 52.8854 535.396 53.565 535.493C54.2447 535.59 54.9375 535.548 55.5999 535.37C56.2624 535.192 56.8803 534.881 57.4151 534.457C57.9498 534.033 58.3899 533.504 58.7077 532.905C59.6976 531.261 60.784 529.675 61.9614 528.155C63.7669 525.856 64.0662 522.104 62.6663 518.741L61.7008 516.489C59.9242 512.129 60.9863 507.255 64.0952 505.564L76.4151 499.047C77.1899 498.656 78.0535 498.467 78.9238 498.497C79.7941 498.527 80.6421 498.775 81.3874 499.218C83.2255 500.314 84.634 501.987 85.3846 503.968L86.3501 506.229C87.0996 508.172 88.4902 509.811 90.299 510.884C91.1796 511.383 92.1794 511.643 93.1955 511.635C94.9512 511.584 96.7084 511.638 98.4575 511.796C101.258 512.11 103.594 510.153 104.308 506.894L104.782 504.719C105.747 500.406 109.31 498.506 112.805 500.406L126.505 507.882C129.991 509.782 132.076 514.789 131.13 519.083L130.647 521.258C130.339 522.944 130.425 524.676 130.899 526.323C131.372 527.971 132.221 529.491 133.38 530.768C134.854 532.364 136.27 534.036 137.628 535.784C138.326 536.714 139.214 537.491 140.235 538.064C140.97 538.509 141.809 538.761 142.672 538.794C143.534 538.827 144.391 538.641 145.159 538.254L146.781 537.389C147.556 536.993 148.423 536.801 149.296 536.833C150.17 536.864 151.02 537.118 151.763 537.57C153.6 538.664 155.005 540.339 155.751 542.32L162.866 559.42C164.643 563.78 163.581 568.654 160.482 570.345L158.86 571.209C156.446 572.492 155.22 575.731 155.741 579.303C156.06 581.593 156.301 583.892 156.446 586.191C156.668 589.763 158.58 593.126 161.273 594.589L163.069 595.539Z" fill="#FFFCF1"/>
</g>
<g id="top-left">
<path id="Vector_17" style="mix-blend-mode:multiply" opacity="0.5" fill-rule="evenodd" clip-rule="evenodd" d="M474.399 154.19L375.686 107.251L336.776 347.05L331.765 380.718L434.359 435.2C452.192 444.919 469.204 435.609 472.352 414.452L500.97 210.126C504.098 188.989 492.222 163.909 474.399 154.19Z" fill="url(#paint5_linear)"/>
<path id="Vector_18" fill-rule="evenodd" clip-rule="evenodd" d="M462.369 211.209L431.617 406.681L434.842 407.071L443.609 403.717C453.264 399.984 458.275 390.132 459.685 380.556L485.077 202.488C485.082 202.457 485.082 202.425 485.077 202.393C487.095 188.419 482.828 173.893 475.017 162.208C470.817 155.91 465.284 150.153 458.497 146.524L269.799 45.6242C263.108 41.8907 255.268 40.5037 247.93 43.2207L240.206 46.1942C236.344 47.6382 235.108 48.7877 235.137 49.0442C238.767 82.5032 467.495 176.876 462.369 211.209Z" fill="#D0E7FF"/>
<path id="Vector_19" fill-rule="evenodd" clip-rule="evenodd" d="M449.653 149.953L260.955 49.0442C253.144 44.7882 245.507 44.1897 239.096 46.6407C230.898 49.7757 224.767 57.9362 223.001 69.8207L197.608 247.889C194.46 269.045 206.297 294.106 224.14 303.825L412.848 404.734C430.671 414.452 447.683 405.142 450.831 383.986L476.224 205.918C479.381 184.752 467.476 159.672 449.653 149.953Z" fill="url(#paint6_linear)"/>
<path id="Vector_20" fill-rule="evenodd" clip-rule="evenodd" d="M414.702 357.072L225.115 256.952C220.741 254.634 216.561 257.018 215.711 262.357C214.89 267.525 217.729 273.596 222.103 275.914L411.68 376.044C416.053 378.352 420.311 376.044 421.161 370.667C421.982 365.518 419.066 359.381 414.702 357.072V357.072ZM423.169 302.865C427.533 305.183 430.449 311.311 429.638 316.46C428.788 321.799 424.531 324.145 420.157 321.837L230.58 221.707C226.206 219.398 223.368 213.318 224.188 208.15C225.038 202.811 229.209 200.436 233.592 202.745L423.169 302.865ZM442.672 179.954L253.066 79.8242C248.693 77.5062 244.512 79.8907 243.701 85.0492L241.587 98.3492C240.776 103.508 243.614 109.588 247.978 111.906L437.594 211.988C441.958 214.297 446.216 211.988 447.036 206.801L449.141 193.501C449.972 188.352 447.036 182.225 442.672 179.916V179.954ZM431.685 249.095C436.049 251.404 438.974 257.446 438.163 262.604C437.294 268.038 433.056 270.28 428.692 267.972L239.125 167.842C234.751 165.543 231.903 159.539 232.714 154.39C233.583 148.956 237.754 146.666 242.118 148.965L431.685 249.095Z" fill="#FFFCF1"/>
</g>
<g id="code-block">
<path id="Vector_21" style="mix-blend-mode:multiply" opacity="0.5" fill-rule="evenodd" clip-rule="evenodd" d="M1202.93 801.717L1040.2 713.813C1030.76 708.664 1021.52 707.943 1013.8 710.897C1003.9 714.697 996.495 724.549 994.361 738.903L975.91 869.11C972.106 894.675 986.425 924.942 1007.96 936.684L1170.69 1024.59C1192.23 1036.33 1212.78 1025.08 1216.58 999.526L1235.02 869.31C1238.84 843.755 1224.46 813.459 1202.93 801.717Z" fill="url(#paint7_linear)"/>
<path id="Vector_22" fill-rule="evenodd" clip-rule="evenodd" d="M1194.34 862.394L1171.91 998.529L1175.4 998.946L1184.94 995.299C1195.41 991.242 1200.89 980.526 1202.43 970.114L1219.03 852.894C1219.03 852.894 1219.03 852.818 1219.03 852.789C1221.23 837.589 1216.58 821.781 1208.1 809.089C1203.52 802.249 1197.47 795.979 1190.13 791.989L1043.63 712.864C1036.36 708.798 1027.84 707.287 1019.85 710.251L1011.44 713.491C1007.21 715.049 1005.9 716.341 1005.93 716.559C1009.91 753.001 1199.91 825.03 1194.34 862.394Z" fill="#D0E7FF"/>
<path id="Vector_23" fill-rule="evenodd" clip-rule="evenodd" d="M1180.51 795.751L1034.02 716.626C1025.53 711.999 1017.21 711.344 1010.26 714.004C1001.35 717.414 994.689 726.287 992.758 739.217L976.161 856.428C972.734 879.437 985.614 906.683 1005 917.228L1151.49 996.344C1170.88 1006.91 1189.37 996.79 1192.8 973.781L1209.41 856.561C1212.84 833.599 1199.9 806.344 1180.51 795.751Z" fill="white"/>
<path id="Vector_24" fill-rule="evenodd" clip-rule="evenodd" d="M1116.7 803.883C1117.78 805.949 1118.2 808.286 1117.91 810.59C1117.32 813.522 1116.43 816.387 1115.24 819.14L1084.04 904.441C1083.07 907.291 1082.11 909.466 1081.43 911.024C1081.19 911.681 1080.81 912.283 1080.33 912.794C1079.84 913.305 1079.26 913.714 1078.61 913.998C1077.53 914.473 1076.03 914.149 1074.1 912.971C1069.42 910.121 1067.34 906.093 1067.94 901.21C1068.57 898.186 1069.43 895.213 1070.52 892.318L1101.66 806.97C1103.25 802.439 1104.66 799.513 1105.84 798.155C1107.02 796.796 1108.94 796.938 1111.57 798.544C1113.77 799.787 1115.55 801.632 1116.7 803.855V803.883ZM1125.03 826.037L1122.14 849.787L1168.25 902.417L1116.57 895.957L1113.67 919.783L1188.01 925.483L1190.45 905.286L1124.94 826.018L1125.03 826.037ZM995.008 807.939L1060.57 887.293L1063.46 863.467L1017.56 810.505L1069.01 817.382L1071.91 793.357L997.509 787.514L995.008 807.939Z" fill="url(#paint8_linear)"/>
</g>
<g id="second-bottom-left-pic">
<path id="Vector_25" fill-rule="evenodd" clip-rule="evenodd" d="M629.495 810.4C632.121 792.682 645.841 784.845 660.121 792.948L872.445 910.748C886.706 918.842 896.158 939.799 893.532 957.517L865.291 1146.65C862.655 1164.37 848.925 1172.2 834.655 1164.1L622.331 1046.3C608.051 1038.21 598.618 1017.25 601.244 999.535L629.495 810.4Z" fill="white"/>
<path id="Vector_26" fill-rule="evenodd" clip-rule="evenodd" d="M655.322 1003.16L729.386 902.227L743.753 1009.26L779.834 970.674L801.075 1085.14L655.322 1003.16Z" fill="url(#paint9_linear)"/>
<path id="Vector_27" fill-rule="evenodd" clip-rule="evenodd" d="M777.372 906.701C785.289 908.288 791.256 917.408 790.686 927.079C790.116 936.75 783.242 943.286 775.325 941.699C767.408 940.113 761.402 931.002 761.972 921.331C762.542 911.66 769.416 905.115 777.372 906.701Z" fill="#FFDB59"/>
<path id="Vector_28" opacity="0.2" fill-rule="evenodd" clip-rule="evenodd" d="M646.739 837.465C648.931 822.74 660.324 816.233 672.19 822.968L848.607 920.818C860.463 927.544 868.313 944.958 866.121 959.683L842.659 1116.81C840.468 1131.53 829.065 1138.04 817.199 1131.31L640.791 1033.46C628.925 1026.73 621.085 1009.32 623.268 994.605L646.739 837.465Z" fill="url(#paint10_linear)"/>
</g>
<g id="bottom-left-pic">
<path id="Vector_29" fill-rule="evenodd" clip-rule="evenodd" d="M925.775 963.05C928.411 945.323 942.121 937.495 956.41 945.599L1168.72 1063.4C1183 1071.48 1192.45 1092.45 1189.81 1110.17L1161.57 1299.27C1158.93 1316.99 1145.21 1324.81 1130.94 1316.73L918.621 1198.93C904.331 1190.82 894.898 1169.87 897.534 1152.16L925.775 963.05Z" fill="white"/>
<path id="Vector_30" fill-rule="evenodd" clip-rule="evenodd" d="M941.865 1166.92L1015.93 1065.97L1030.29 1173.01L1066.37 1134.43L1087.62 1248.89L941.865 1166.92Z" fill="url(#paint11_linear)"/>
<path id="Vector_31" fill-rule="evenodd" clip-rule="evenodd" d="M1063.88 1070.45C1071.79 1072.04 1077.75 1081.16 1077.19 1090.82C1076.63 1100.48 1069.75 1107.04 1061.83 1105.45C1053.91 1103.86 1047.94 1094.74 1048.5 1085.07C1049.06 1075.4 1055.95 1068.87 1063.88 1070.45Z" fill="#FFDB59"/>
<path id="Vector_32" opacity="0.2" fill-rule="evenodd" clip-rule="evenodd" d="M943.019 990.106C945.211 975.391 956.604 968.883 968.479 975.609L1144.89 1073.46C1156.74 1080.19 1164.59 1097.6 1162.41 1112.32L1138.94 1269.5C1136.76 1284.23 1125.34 1290.72 1113.49 1284.01L937.071 1186.16C925.205 1179.42 917.365 1162.02 919.557 1147.29L943.019 990.106Z" fill="url(#paint12_linear)"/>
</g>
<g id="middle-tv">
<path id="Vector_33" style="mix-blend-mode:multiply" opacity="0.5" fill-rule="evenodd" clip-rule="evenodd" d="M542.426 280.069C547.186 245.555 573.795 230.669 601.872 246.952L891.823 413.525C919.871 429.76 938.785 470.981 934.035 505.504L889.843 834.536C885.084 869.05 858.436 883.936 830.388 867.663L540.446 701.09C512.37 684.835 493.475 643.624 498.235 609.111L542.426 280.069Z" fill="url(#paint13_linear)"/>
<path id="Vector_34" fill-rule="evenodd" clip-rule="evenodd" d="M552.708 278.542C553.22 274.809 553.973 258.136 558.501 254.792C564.642 250.213 575.832 243.563 579.144 242.689C587.785 240.409 597.749 241.91 607.926 247.8L878.885 402.251C904.954 417.337 922.526 455.641 918.114 487.751L877.041 793.461C875.506 804.662 871.47 813.639 865.783 819.928C861.921 824.184 852.923 830.141 845.411 833.96C837.687 837.902 826.728 827.091 821.804 824.241L550.874 669.752C524.805 654.647 507.224 616.362 511.646 584.252L552.708 278.542Z" fill="#D0E7FF"/>
<path id="Vector_35" fill-rule="evenodd" clip-rule="evenodd" d="M543.169 285.097C547.591 253.016 572.318 239.212 598.406 254.317L867.83 409.101C893.899 424.187 911.471 462.491 907.059 494.601L865.996 800.311C861.574 832.383 836.808 846.186 810.749 831.091L541.373 676.307C515.305 661.202 497.723 622.917 502.145 590.807L543.169 285.097Z" fill="white"/>
<path id="Vector_36" fill-rule="evenodd" clip-rule="evenodd" d="M543.169 285.097C547.591 253.016 572.318 239.212 598.406 254.317L867.83 409.101C893.899 424.187 911.471 462.491 907.058 494.601L902.849 525.001L538.892 315.858L543.169 285.097Z" fill="url(#paint14_linear)"/>
<path id="Vector_37" fill-rule="evenodd" clip-rule="evenodd" d="M586.482 286.294C592.42 287.681 596.958 294.673 596.61 301.922C596.262 309.17 591.174 313.92 585.236 312.552C579.298 311.184 574.761 304.173 575.108 296.925C575.456 289.676 580.554 284.907 586.482 286.294Z" fill="white"/>
<path id="Vector_38" fill-rule="evenodd" clip-rule="evenodd" d="M618.16 305.722C624.098 307.109 628.626 314.101 628.288 321.349C627.95 328.598 622.852 333.348 616.915 331.961C610.977 330.574 606.477 323.582 606.796 316.352C607.115 309.123 612.27 304.335 618.16 305.722Z" fill="white"/>
<path id="Vector_39" fill-rule="evenodd" clip-rule="evenodd" d="M649.838 325.149C655.766 326.536 660.304 333.528 659.957 340.777C659.609 348.025 654.521 352.775 648.593 351.388C642.665 350.001 638.117 343.009 638.465 335.761C638.812 328.512 643.9 323.762 649.838 325.149Z" fill="white"/>
<path id="Vector_40" opacity="0.2" fill-rule="evenodd" clip-rule="evenodd" d="M600.317 376.601C627.825 383.014 648.834 415.437 647.241 449.02C645.648 482.602 622.061 504.623 594.553 498.201C567.046 491.779 546.046 459.356 547.64 425.783C549.233 392.21 572.82 370.179 600.317 376.601Z" fill="url(#paint15_linear)"/>
<path id="Vector_41" fill-rule="evenodd" clip-rule="evenodd" d="M598.995 404.617C613.825 408.084 625.15 425.517 624.291 443.662C623.432 461.807 610.716 473.644 595.857 470.186C580.998 466.728 569.701 449.238 570.561 431.141C571.42 413.043 584.165 401.159 598.995 404.617Z" fill="url(#paint16_linear)"/>
<g id="Vector_42" style="mix-blend-mode:multiply" opacity="0.2">
<path fill-rule="evenodd" clip-rule="evenodd" d="M663.78 441.752C664.746 434.618 670.259 431.635 676.042 435.102L852.15 534.976C857.943 538.434 861.805 547.041 860.84 554.175L858.909 568.283C857.943 575.417 852.43 578.4 846.647 574.933L670.577 475.059C664.784 471.601 660.922 462.994 661.888 455.869L663.78 441.752Z" fill="#59CAAF"/>
</g>
<g id="Vector_43" style="mix-blend-mode:multiply" opacity="0.2">
<path fill-rule="evenodd" clip-rule="evenodd" d="M656.78 493.66C657.36 489.442 660.642 487.685 664.022 489.727L768.016 548.703C771.424 550.746 773.732 555.828 773.153 560.046L772.023 568.378C771.444 572.586 768.161 574.344 764.782 572.301L660.797 513.325C657.379 511.283 655.071 506.2 655.651 501.992L656.78 493.66Z" fill="#59CAAF"/>
</g>
<g id="Vector_44" style="mix-blend-mode:multiply" opacity="0.2">
<path fill-rule="evenodd" clip-rule="evenodd" d="M539.24 506.894C539.954 501.697 543.951 499.522 548.161 502.039L852.295 673.723C856.505 676.241 859.343 682.511 858.629 687.707L857.663 694.509C856.949 699.706 852.942 701.881 848.732 699.354L544.598 527.68C540.379 525.153 537.54 518.892 538.264 513.696L539.24 506.894Z" fill="#59CAAF"/>
</g>
<g id="Vector_45" style="mix-blend-mode:multiply" opacity="0.2">
<path fill-rule="evenodd" clip-rule="evenodd" d="M532.877 557.244C533.591 552.047 537.589 549.872 541.808 552.399L845.923 724.083C850.132 726.6 852.981 732.861 852.266 738.057L851.301 744.859C850.576 750.056 846.579 752.231 842.37 749.714L538.236 578.03C534.016 575.512 531.187 569.242 531.902 564.055L532.877 557.244Z" fill="#59CAAF"/>
</g>
<g id="Vector_46" style="mix-blend-mode:multiply" opacity="0.2">
<path fill-rule="evenodd" clip-rule="evenodd" d="M526.215 605.219C526.929 600.022 530.927 597.847 535.146 600.364L839.28 772.048C843.49 774.566 846.328 780.836 845.614 786.032L844.648 792.834C843.934 798.031 839.927 800.197 835.717 797.679L531.583 625.995C527.364 623.478 524.535 617.217 525.249 612.021L526.215 605.219Z" fill="#59CAAF"/>
</g>
</g>
<g id="play-top-right">
<path id="Vector_47" style="mix-blend-mode:multiply" opacity="0.5" fill-rule="evenodd" clip-rule="evenodd" d="M993.69 381.782L1350.49 553.01L1341.04 562.51L1306.77 798.025C1303.28 822.183 1284.57 832.89 1265.09 821.917L931.135 634.026L902.169 570.376L993.69 381.782Z" fill="url(#paint17_linear)"/>
<path id="Vector_48" fill-rule="evenodd" clip-rule="evenodd" d="M937.826 287.58C938.791 280.93 934.282 275.8 937.217 271.43C940.394 266.68 951.179 263.26 955.842 261.598C962.465 259.251 970.257 260.021 978.184 264.448L1301.68 446.43C1320.56 457.06 1333.15 484.696 1329.76 508.094L1293.45 757.821C1291.8 769.287 1286.6 777.619 1279.52 781.894C1275.19 784.497 1263.34 789.494 1257.97 788.848C1254.19 788.401 1257.06 783.195 1253.08 780.953L929.638 598.971C910.734 588.331 898.163 560.705 901.542 537.307L937.826 287.58Z" fill="#D0E7FF"/>
<path id="Vector_49" fill-rule="evenodd" clip-rule="evenodd" d="M928.132 291.39C931.511 267.991 949.585 257.608 968.49 268.248L1291.98 450.23C1310.87 460.86 1323.46 488.505 1320.07 511.904L1283.77 761.621C1280.38 785.019 1262.28 795.393 1243.39 784.763L919.944 602.781C901.04 592.131 888.469 564.505 891.848 541.107L928.132 291.39Z" fill="url(#paint18_linear)"/>
<g id="Vector_50" style="mix-blend-mode:multiply" opacity="0.35">
<path fill-rule="evenodd" clip-rule="evenodd" d="M903.193 552.735C903.473 550.778 904.989 549.942 906.563 550.835L1051.26 632.535C1052.1 633.121 1052.75 633.917 1053.17 634.84C1053.58 635.763 1053.73 636.778 1053.61 637.779L1052.64 643.716C1052.36 645.673 1050.85 646.509 1049.27 645.616L904.612 563.935C903.78 563.347 903.124 562.551 902.711 561.629C902.298 560.706 902.145 559.692 902.266 558.691L903.193 552.735Z" fill="#59CAAF"/>
</g>
<path id="Vector_51" fill-rule="evenodd" clip-rule="evenodd" d="M1045.02 432.598C1045.82 427.021 1050.11 424.551 1054.61 427.088L1154.2 483.138C1158.69 485.665 1161.69 492.239 1160.89 497.806L1147.47 591.048C1146.66 596.615 1142.36 599.076 1137.81 596.549L1038.23 540.499C1033.73 537.972 1030.74 531.398 1031.55 525.831L1045.02 432.598Z" fill="url(#paint19_linear)"/>
<path id="Vector_52" fill-rule="evenodd" clip-rule="evenodd" d="M1101.83 473.163C1084.58 463.463 1068.12 472.916 1065.03 494.253C1061.94 515.59 1073.39 540.803 1090.64 550.474C1107.88 560.145 1124.34 550.721 1127.43 529.365C1130.52 508.009 1119.05 482.862 1101.83 473.163Z" fill="url(#paint20_linear)"/>
<path id="Vector_53" fill-rule="evenodd" clip-rule="evenodd" d="M1085.88 483.527L1080.43 522.154L1113.69 523.038L1085.88 483.527Z" fill="white"/>
</g>
<g id="women">
<path id="Vector_54" fill-rule="evenodd" clip-rule="evenodd" d="M603.475 43.7592C614.346 61.5717 638.281 66.0747 649.597 62.3982C630.026 66.6542 609.779 49.4022 603.475 43.7592Z" fill="#FF9080"/>
<path id="Vector_55" fill-rule="evenodd" clip-rule="evenodd" d="M704.109 221.466L692.475 178.384L700.518 171.325L773.964 211.89L767.128 219.424L735.228 240.428L704.109 221.466Z" fill="#4A9FF8"/>
<path id="Vector_56" fill-rule="evenodd" clip-rule="evenodd" d="M692.504 178.498L687.155 161.683L778.81 211.738L767.002 219.509L692.504 178.498Z" fill="#D0E7FF"/>
<g id="Group 6">
<path id="Vector_57" fill-rule="evenodd" clip-rule="evenodd" d="M593.836 20.8262C574.941 31.7417 583.988 56.9263 601.164 83.6118C625.524 121.431 566.561 164.001 646.707 185.537C638.356 162.462 673.085 154.016 690.155 122.495C709.842 86.1293 698.96 49.6492 673.635 18.5842C653.031 -6.71425 615.348 -6.39125 593.836 20.8262Z" fill="url(#paint21_linear)"/>
<path id="Vector_58" fill-rule="evenodd" clip-rule="evenodd" d="M631.249 259.818L635.874 276.918C637.322 280.594 638.201 281.582 643.598 279.198C646.495 277.801 645.607 271.797 644.795 267.418C644.077 263.838 644.146 260.149 644.998 256.597C645.595 254.776 646.774 253.194 648.358 252.085C651.564 249.558 655.31 247.867 653.002 239.82C651.795 235.621 652.037 232.496 652.037 228.135L640.866 227.413C641.127 237.217 636.695 243.829 632.089 252.113C629.782 256.103 630.274 255.353 631.249 259.818Z" fill="url(#paint22_linear)"/>
<path id="Vector_59" fill-rule="evenodd" clip-rule="evenodd" d="M671.019 150.995L670.932 150.444C670.917 149.648 670.8 148.856 670.584 148.088C667.746 129.449 661.981 98.0328 657.482 81.6453C649.642 53.0313 624.761 62.9208 625.012 79.9923C625.263 96.1423 640.528 131.131 644.052 146.293C642.797 157.332 638.114 212.489 639.736 222.122C640.045 223.955 640.856 225.152 640.769 227.166C640.702 228.696 640.277 229.313 639.804 231.156C644.209 231.666 648.585 232.395 652.915 233.341C653.013 231.895 653.233 230.458 653.572 229.047C654.325 226.976 656.256 225.912 657.125 224.155C661.421 215.51 668.508 170.176 670.459 155.422C670.831 153.975 671.019 152.488 671.019 150.995V150.995Z" fill="url(#paint23_linear)"/>
<g id="Vector_60" style="mix-blend-mode:multiply" opacity="0.35">
<path fill-rule="evenodd" clip-rule="evenodd" d="M667.765 168.447C669.435 164.485 671.318 152.145 671.299 146.673C671.299 135.273 666.896 125.906 665.506 118.686L625.196 79.1657C625.447 86.5662 634.223 106.288 637.825 120.842C643.434 143.547 655.648 163.108 667.765 168.447Z" fill="#3469C0"/>
</g>
<path id="Vector_61" fill-rule="evenodd" clip-rule="evenodd" d="M792.614 171.135C786.918 189.641 760.212 204.224 733.448 198.429C727.056 191.437 725.154 193.612 719.313 187.979C713.993 182.849 707.428 175.838 698.246 166.67C693.138 158.785 672.998 155.555 664.106 152.126C654.045 148.202 645.133 140.165 641.03 124.452C639.022 116.852 630.255 93.5487 627.098 85.7872C617.993 63.3482 637.718 54.9597 651.129 63.2627C659.684 66.7777 678.569 71.1952 687.896 72.9052C693.287 73.9859 698.734 74.7819 704.213 75.2897C715.316 76.3442 727.385 84.3242 735.997 91.0787C759.131 109.252 790.558 145.761 792.614 171.135Z" fill="url(#paint24_linear)"/>
<path id="Vector_62" fill-rule="evenodd" clip-rule="evenodd" d="M658.409 54.2283C661.105 64.3269 666.624 73.4796 674.34 80.6478C671.511 90.6038 652.133 97.7478 646.031 91.0978C645.558 89.7583 644.911 86.7753 644.245 85.8158C643.231 82.8898 642.218 80.3248 641.349 78.2823L658.409 54.2283Z" fill="url(#paint25_linear)"/>
<path id="Vector_63" fill-rule="evenodd" clip-rule="evenodd" d="M602.304 40.9093C603.269 48.5093 605.702 54.8648 612.335 61.3913C613.693 62.62 614.665 64.2057 615.135 65.9608C617.645 75.0048 619.625 76.8573 625.524 80.9898C631.259 85.0083 633.402 87.8013 636.676 88.1338C639.949 88.4663 643.135 86.6898 645.587 84.9608C650.627 81.4078 656.275 71.6608 658.921 65.2958C660.852 60.5458 659.674 59.3488 658.428 54.8458C659.877 46.5428 654.055 46.0203 652.104 47.0463C646.543 49.9913 650.279 56.0618 648.426 59.5483C628.855 63.8043 608.608 46.5523 602.304 40.9093Z" fill="#FFA698"/>
<g id="Vector_64" style="mix-blend-mode:multiply" opacity="0.35">
<path fill-rule="evenodd" clip-rule="evenodd" d="M728.891 193.859C728.729 193.9 728.564 193.932 728.399 193.954C725.434 192.054 723.291 191.788 719.332 187.969C714.013 182.839 707.447 175.828 698.265 166.661C695.658 162.642 689.151 159.83 682.218 157.588C683.309 139.168 682.827 97.0637 688.977 91.5822C697.454 83.9822 709.108 78.9947 718.84 88.8367C737.165 107.409 718.879 176.142 728.891 193.859Z" fill="#3469C0"/>
</g>
<path id="Vector_65" fill-rule="evenodd" clip-rule="evenodd" d="M678.685 246.299C675.856 250.945 677.343 261.005 676.425 265.793C675.428 270.574 673.98 275.252 672.1 279.768C671.501 281.003 652.79 297.39 651.66 296.564C649.189 294.664 647.576 281.744 650.83 277.982C654.084 274.22 656.816 270.543 657.366 267.465C657.917 264.387 657.743 254.165 659.095 252.569C662.175 248.988 665.39 247.819 666.761 243.392L678.685 246.299Z" fill="url(#paint26_linear)"/>
<path id="Vector_66" fill-rule="evenodd" clip-rule="evenodd" d="M715.19 183.675C715.49 182.607 715.725 181.522 715.895 180.426C720.771 160.552 725.734 126.542 725.106 106.839C724.614 91.7913 717.17 79.0613 699.231 83.9633C693.718 85.5023 687.374 89.5873 686.525 96.7313C685.559 105.281 686.843 119.531 687.664 134C688.32 145.599 688.263 166.509 688.707 174.992C688.629 175.249 688.562 175.515 688.485 175.781C682.749 187.029 669.368 223.775 666.568 235.697C666.104 237.683 666.568 239.83 666.519 241.207C666.391 242.773 665.896 244.289 665.071 245.634C668.556 248.721 672.794 250.868 677.372 251.866C678.096 250.353 678.935 248.895 679.882 247.506C680.654 246.337 684.256 245.235 685.675 243.582C693.109 234.823 712.709 194.752 715.123 184.093L715.19 183.675Z" fill="url(#paint27_linear)"/>
</g>
</g>
<g id="man">
<g id="Group 5">
<path id="Vector_67" fill-rule="evenodd" clip-rule="evenodd" d="M641.037 449.59C639.927 451.908 638.855 454.255 637.687 456.544L632.859 465.997C631.836 461.361 628.032 459.594 625.193 461.931C624.171 462.76 623.366 463.819 622.847 465.018C622.393 463.755 618.753 460.905 613.829 467.783C610.768 467.45 609.146 468.733 607.853 471.174C607.047 472.773 606.359 474.427 605.796 476.124C604.922 478.263 604.435 480.536 604.357 482.84C604.357 487.4 604.589 492.34 604.454 497.784C604.319 503.693 597.502 511.179 593.833 515.492L616.127 522.446C619.535 518.228 621.379 515.188 624.816 511.768C628.254 508.348 632.743 507.863 636.074 505.165C637.947 503.664 639.019 501.669 642.196 497.242C644.822 493.585 646.26 489.642 648.761 485.614C651.262 481.586 651.059 482.384 651.3 477.729C651.493 474.129 652.681 470.585 652.98 468.4C648.394 466.158 644.783 471.725 644.822 477.14C642.196 478.594 640.477 482.156 639.878 483.743C636.238 479.059 638.411 477.093 639.878 471.079C642.054 467.252 643.803 463.203 645.092 459.005C645.797 457.105 646.511 455.205 647.274 453.153C648.307 449.78 646.984 447.386 645.951 446.731C645.092 446.18 642.9 446.427 641.037 449.59Z" fill="url(#paint28_linear)"/>
<path id="Vector_68" fill-rule="evenodd" clip-rule="evenodd" d="M556.845 576.33C568.064 557.092 576.85 533 592.569 513.459C593.882 511.825 596.952 510.609 598.082 508.87C599.717 506.381 601.345 503.937 602.967 501.536C610.315 501.669 619.381 505.393 625.531 511.549C624.649 514.127 623.787 516.689 622.943 519.235C621.978 522.208 623.851 528.564 622.992 531.585C615.824 556.825 606.632 581.466 595.504 605.276C579.949 625.017 510.848 751.709 474.709 705.739C471.465 689.389 475.868 675.785 484.22 662.552C488.854 655.227 495.883 648.834 500.633 644.008C511.949 632.361 539.784 593.639 556.845 576.33Z" fill="url(#paint29_linear)"/>
<path id="Vector_69" fill-rule="evenodd" clip-rule="evenodd" d="M561.344 654.239C560.731 663.441 561.165 672.682 562.638 681.789C545.973 681.257 522.811 676.973 520.291 664.756C520.407 663.293 520.513 661.811 520.59 660.357C520.374 660.166 520.145 659.988 519.905 659.825C513.928 655.921 504.041 653.014 497.698 645.87C487.541 634.47 482.144 619.089 490.119 603.642C504.669 575.427 539.871 574.952 559.481 597.762C563.343 602.217 560.504 606.834 562.686 611.128C563.111 611.974 564.675 612.344 566.49 613.826C569.001 615.859 576.319 633.501 576.145 642.706C576.068 646.411 567.456 651.636 563.594 653.688C562.867 653.954 562.113 654.139 561.344 654.239V654.239Z" fill="#FFA698"/>
<path id="Vector_70" fill-rule="evenodd" clip-rule="evenodd" d="M561.344 654.239C560.731 663.441 561.165 672.682 562.638 681.789C545.973 681.257 522.811 676.973 520.291 664.756C520.407 663.293 520.513 661.811 520.59 660.357C520.358 660.158 520.107 660.015 519.905 659.825C507.237 648.159 524.182 634.793 545.587 646.316C547.188 648.963 549.517 651.111 552.305 652.513C555.092 653.915 558.226 654.513 561.344 654.239V654.239Z" fill="url(#paint30_linear)"/>
<path id="Vector_71" fill-rule="evenodd" clip-rule="evenodd" d="M576.116 642.706C576.039 644.321 569.223 646.772 566.365 647.143C568.296 629.72 551.457 627.06 553.997 610.036C555.522 599.814 544.834 596.118 549.024 588.632C552.94 591.159 556.459 594.234 559.471 597.762C563.333 602.217 560.495 606.834 562.677 611.128C563.101 611.974 564.666 612.344 566.481 613.826C568.991 615.897 576.541 633.51 576.116 642.706Z" fill="url(#paint31_linear)"/>
<path id="Vector_72" fill-rule="evenodd" clip-rule="evenodd" d="M553.147 635.629C552.819 631.724 551.216 630.974 549.884 632.009C548.551 633.045 547.18 636.531 547.576 640.559C548.223 647.038 554.335 652.833 558.535 647.599C553.939 649.993 551.776 644.198 551.573 640.103C551.438 637.31 552.153 634.973 553.147 635.629Z" fill="#FFB49C"/>
<path id="Vector_73" fill-rule="evenodd" clip-rule="evenodd" d="M551.689 638.118C554.132 639.942 555.261 641.177 555.223 642.193C555.223 642.906 554.595 643.979 552.442 643.229C551.702 641.63 551.44 639.857 551.689 638.118Z" fill="#FF9D8E"/>
<path id="Vector_74" fill-rule="evenodd" clip-rule="evenodd" d="M518.312 663.103C512.219 656.7 501.898 653.603 495.284 646.193C488.671 638.783 481.603 627.573 485.967 615.992C478.243 592.242 504.563 573.337 526.692 569.043C542.526 565.975 551.998 582.685 545.114 593.99C551.052 600.526 550.849 609.19 550.434 611.385C549.169 618.177 549.353 618.985 551.554 624.124C553.302 628.133 557.646 637.842 549.777 631.724C544.699 627.753 541.146 636.531 542.864 642.592C544.08 646.381 544.455 650.381 543.965 654.325C542.488 667.026 521.71 666.665 518.312 663.103Z" fill="#562E65"/>
<path id="Vector_75" fill-rule="evenodd" clip-rule="evenodd" d="M493.305 605.219C488.062 582.182 518.852 570.516 530.902 570.24C542.951 569.965 552.645 589.696 538.191 596.346C528.334 600.878 508.821 592.014 493.305 605.219Z" fill="url(#paint32_linear)"/>
<path id="Vector_76" fill-rule="evenodd" clip-rule="evenodd" d="M737.443 637.852C736.89 639.348 736.565 640.917 736.477 642.507C735.48 644.783 734.713 647.15 734.189 649.575C733.436 653.308 733.725 656.225 733.61 661.212C733.542 664.062 734.015 665.563 734.633 668.366C731.679 674.066 727.025 677.552 722.68 682.245L736.728 692.847C742.666 689 747.349 684.943 752.427 681.599C756.579 679.984 758.037 679.072 759.273 677.799C762.536 674.455 772.133 664.499 772.684 660.614C773.302 656.282 772.124 646.259 771.129 640.749C768.58 626.708 763.144 611.964 762.218 618.472C760.856 620.03 761.966 632.722 761.107 634.622C757.776 638.422 756.183 639.951 752.012 644.454C749.425 645.898 747.716 647.418 746.47 647.751C745.032 648.131 744.23 647.143 744.182 645.851C744.124 644.464 745.032 641.994 745.775 638.365C745.775 632.351 744.259 628.95 740.996 629.264C740.221 629.296 739.485 629.602 738.921 630.126C738.357 630.649 738.004 631.355 737.925 632.114C737.587 633.453 737.674 635.391 737.443 637.852Z" fill="url(#paint33_linear)"/>
<g id="Group 4">
<g id="Vector_77" style="mix-blend-mode:multiply" opacity="0.35">
<path fill-rule="evenodd" clip-rule="evenodd" d="M397.923 1203.1L560.755 1111.8C578.511 1103.82 603.923 1097.46 622.016 1106.72C638.498 1115.17 665.648 1132.44 677.659 1139.18C686.773 1144.3 718.432 1162.93 698.716 1173.5C640.718 1204.57 583.3 1239.47 524.404 1271C513.262 1276.95 496.964 1279.11 479.865 1277.71C462.766 1276.32 445.368 1271.44 431.59 1263.58L402.75 1247.04C389.977 1239.71 383.199 1231.06 382.533 1223.06C381.886 1215.24 386.993 1208 397.923 1203.1Z" fill="#59CAAF"/>
</g>
<path id="Vector_78" fill-rule="evenodd" clip-rule="evenodd" d="M457.91 1198.25C461.096 1198.18 471.842 1188.24 482.047 1193.26C494.271 1199.29 517.491 1193.94 529.202 1196.72C531.288 1197.21 535.372 1195.7 536.173 1197.11C538.703 1201.52 541.146 1208.13 534.938 1212.45C530.371 1215.63 520.59 1219.84 514.17 1222.07C507.411 1224.45 495.719 1228.19 487.908 1229.39C479.218 1230.72 475.356 1231.29 472.083 1233.73C467.449 1236.02 462.67 1237.01 460.005 1236.58C454.299 1235.69 447.646 1232.4 444.605 1226C443.639 1223.95 443.639 1215.02 444.73 1209.23C445.609 1204.66 448.148 1199.45 450.176 1194.59L457.91 1198.25Z" fill="white"/>
<path id="Vector_79" fill-rule="evenodd" clip-rule="evenodd" d="M482.887 1176.89C479.025 1186.03 480.213 1200.17 471.05 1205.07C464.919 1208.36 455.322 1208.38 451.141 1199.02C448.815 1193.79 451.904 1184.86 451.219 1173.37L482.887 1176.89Z" fill="#FFA495"/>
<path id="Vector_80" fill-rule="evenodd" clip-rule="evenodd" d="M485.455 1191.05C492.484 1193.05 511.872 1191.71 524.134 1192.68C529.405 1193.11 534.127 1193.07 536.589 1197.77C538.858 1202.1 537.67 1205.81 532.533 1209.38C527.967 1212.56 520.223 1216.19 513.803 1218.43C507.044 1220.8 495.352 1224.54 487.541 1225.74C478.851 1227.07 474.989 1227.64 471.716 1230.08C467.082 1232.37 462.303 1233.36 459.638 1232.93C456.36 1232.37 453.262 1231.07 450.592 1229.11C447.922 1227.16 445.756 1224.62 444.267 1221.69C443.301 1219.65 443.301 1211.39 444.393 1205.54C444.622 1204.39 444.921 1203.25 445.29 1202.13C446.256 1193.05 449.297 1189.38 452.174 1190.93C456.104 1193.06 457.581 1196.89 459.078 1200.03C459.56 1201.19 460.286 1202.24 461.207 1203.1C462.129 1203.97 463.226 1204.63 464.427 1205.05C469.129 1206.5 473.416 1203.93 476.196 1199.96C477.731 1197.07 478.818 1193.97 479.421 1190.76C479.421 1190.45 479.421 1190.14 479.421 1189.81C480.387 1181.88 484.249 1182.56 483.669 1184.23C483.09 1185.91 483.331 1189.42 485.455 1191.05Z" fill="#193161"/>
<path id="Vector_81" fill-rule="evenodd" clip-rule="evenodd" d="M537.805 1166.81C540.769 1165.67 547.393 1152.69 558.699 1153.97C563.266 1154.47 570.603 1153.3 578.009 1151.22C589.885 1147.9 606.433 1137.46 609.253 1139.17C615.403 1142.89 615.895 1149.68 611.579 1155.84C608.403 1160.37 602.397 1166.39 597.155 1170.67C591.593 1175.2 583.705 1182.14 576.792 1185.87C570.265 1189.43 568.103 1189.12 563.449 1195.3C559.906 1199.02 555.725 1201.23 553.108 1201.74C546.35 1203.04 536.463 1198.75 532.91 1194.28C530.651 1187.09 526.74 1180.28 529.251 1169.5L537.805 1166.81Z" fill="white"/>
<path id="Vector_82" fill-rule="evenodd" clip-rule="evenodd" d="M553.485 1136.2C553.301 1146.1 559.693 1158.81 553.002 1166.7C548.532 1171.96 539.62 1175.47 532.234 1168.27C528.111 1164.25 527.658 1154.82 522.734 1144.41L553.485 1136.2Z" fill="#FFA495"/>
<path id="Vector_83" fill-rule="evenodd" clip-rule="evenodd" d="M575.006 1148.27L577.034 1147.73C588.909 1144.4 604.773 1136.33 607.602 1138.06C613.752 1141.78 614.92 1146.18 610.604 1152.31C607.428 1156.84 601.422 1162.86 596.18 1167.13C590.618 1171.67 582.73 1178.6 575.817 1182.33C569.29 1185.9 567.128 1185.58 562.474 1191.76C558.93 1195.48 554.75 1197.7 552.133 1198.2C545.375 1199.5 535.189 1195.18 531.636 1190.69C529.956 1185.35 527.658 1180.24 527.474 1173.53C526.509 1164.73 527.098 1160.23 530.989 1160.36C538.23 1160.57 541.213 1164.32 544.206 1166.16C550.646 1170.11 554.953 1165.01 556.005 1158.69C556.133 1155.9 555.935 1153.1 555.416 1150.35C555.319 1150.05 555.204 1149.76 555.088 1149.48C552.973 1141.77 556.884 1140.99 556.951 1142.77C556.918 1144.42 557.512 1146.03 558.617 1147.27C559.722 1148.52 561.259 1149.31 562.928 1149.5C566.886 1150.16 571.82 1148.53 575.006 1148.27Z" fill="#193161"/>
<path id="Vector_84" fill-rule="evenodd" clip-rule="evenodd" d="M606.868 1139.04C608.133 1141.89 612.564 1140.09 613.684 1145.54C614.785 1142.57 609.108 1138.19 607.408 1137.94C606.704 1137.81 606.192 1137.87 606.868 1139.04Z" fill="white"/>
<path id="Vector_85" fill-rule="evenodd" clip-rule="evenodd" d="M546.611 868.939C549.208 897.61 563.816 989.19 559.751 1014.29C553.639 1052.1 555.387 1097.78 555.455 1137.9C554.421 1154.76 530.863 1163.55 524.008 1152.86C518.505 1117 510.665 1085.59 507.488 1065.67C503.916 1043.35 505.094 1016.27 510.848 1001.58C508.492 985.561 497.389 944.236 488.111 915.603C484.77 905.267 465.807 871.903 485.436 838.653L546.611 868.939Z" fill="url(#paint34_linear)"/>
<path id="Vector_86" fill-rule="evenodd" clip-rule="evenodd" d="M555.879 1127.18C555.879 1130.15 555.783 1134.68 555.793 1137.63C554.759 1154.49 530.902 1163.64 524.047 1152.92C523.641 1150.28 523.081 1147.66 522.627 1145.07C531.848 1154.82 549.913 1142.12 555.879 1127.18Z" fill="url(#paint35_linear)"/>
<path id="Vector_87" fill-rule="evenodd" clip-rule="evenodd" d="M544.766 1033.23C529.058 1068.2 500.092 1136.78 484.683 1179.75C476.708 1191.15 448.283 1189.96 448.341 1179.33C454.617 1143.44 461.994 1088.13 475.086 1056.6C479.093 1046.97 493.884 1023.79 499.224 1016.91C503.375 1001.07 508.56 958.287 512.567 935.135C508.975 915.983 493.257 883.949 523.448 856.114C535.623 864.664 573.258 869.956 590.329 860.475C593.061 936.142 574.185 967.701 544.766 1033.23Z" fill="url(#paint36_linear)"/>
<path id="Vector_88" fill-rule="evenodd" clip-rule="evenodd" d="M487.879 1172.26C487.184 1174.16 485.822 1177.96 485.175 1179.73C476.969 1191.46 447.704 1190.24 447.762 1179.29C448.071 1177.52 448.39 1175.7 448.728 1173.84C455.679 1180.83 476.776 1180.93 487.879 1172.26Z" fill="url(#paint37_linear)"/>
<path id="Vector_89" fill-rule="evenodd" clip-rule="evenodd" d="M479.991 766.197C482.52 788.626 475.665 810.695 482.646 831.177C482.955 833.295 483.158 841.627 483.524 843.859C488.12 870.393 545.162 897.24 592.733 871.78C592.993 868.493 592.733 865.054 592.955 858.955C592.067 853.255 594.567 847.165 594.557 843.698C594.48 829.258 589.913 821.848 592.105 805.802C596.566 773.113 614.968 741.696 604.792 715.98C602.6 710.46 598.777 707.781 594.442 704.361C583.193 695.469 525.051 666.361 507.421 664.281C456.22 657.754 477.22 741.858 479.991 766.197Z" fill="url(#paint38_linear)"/>
<path id="Vector_90" fill-rule="evenodd" clip-rule="evenodd" d="M595.552 696.761C614.939 699.706 652.333 720.682 678.141 732.054C692.527 711.876 711.413 687.689 723.066 679.547C724.408 678.597 727.817 676.697 728.859 675.462C730.549 673.42 732.2 671.33 733.793 669.173C741.073 670.123 751.616 679.11 751.481 683.328C750.303 685.45 749.109 687.651 747.899 689.931C747.069 691.489 747.368 694.899 746.885 696.657C742.927 710.783 721.145 743.425 710.988 757.989C705.118 766.396 703.051 771.289 699.083 773.854C692.701 777.882 684.147 775.678 667.656 771.602C653.791 768.173 608.992 760.202 588.388 749.458C573.847 741.858 562.696 728.32 568.47 712.664C572.177 702.632 583.087 694.871 595.552 696.761Z" fill="url(#paint39_linear)"/>
</g>
</g>
</g>
</g>
</g>
</g>
<defs>
<filter id="filter0_d" x="0" y="0" width="1369" height="1432" filterUnits="userSpaceOnUse" color-interpolation-filters="sRGB">
<feFlood flood-opacity="0" result="BackgroundImageFix"/>
<feColorMatrix in="SourceAlpha" type="matrix" values="0 0 0 0 0 0 0 0 0 0 0 0 0 0 0 0 0 0 127 0"/>
<feOffset dy="4"/>
<feGaussianBlur stdDeviation="2"/>
<feColorMatrix type="matrix" values="0 0 0 0 0 0 0 0 0 0 0 0 0 0 0 0 0 0 0.25 0"/>
<feBlend mode="normal" in2="BackgroundImageFix" result="effect1_dropShadow"/>
<feBlend mode="normal" in="SourceGraphic" in2="effect1_dropShadow" result="shape"/>
</filter>
<linearGradient id="paint0_linear" x1="87564.5" y1="64365.6" x2="87494.8" y2="128128" gradientUnits="userSpaceOnUse">
<stop stop-color="#324179"/>
<stop offset="1" stop-color="#0C124D"/>
</linearGradient>
<linearGradient id="paint1_linear" x1="744.661" y1="207.862" x2="744.642" y2="332.008" gradientUnits="userSpaceOnUse">
<stop stop-color="#324179"/>
<stop offset="1" stop-color="#0C124D"/>
</linearGradient>
<linearGradient id="paint2_linear" x1="866.778" y1="425.137" x2="735.653" y2="1233.94" gradientUnits="userSpaceOnUse">
<stop stop-color="#D1E8FF"/>
<stop offset="1" stop-color="#EAEFFF"/>
</linearGradient>
<linearGradient id="paint3_linear" x1="945.322" y1="272.196" x2="638.737" y2="1270.35" gradientUnits="userSpaceOnUse">
<stop stop-color="#6D6AFE"/>
<stop offset="1" stop-color="#3FB0F7"/>
</linearGradient>
<linearGradient id="paint4_linear" x1="302.691" y1="628.57" x2="267.076" y2="732.355" gradientUnits="userSpaceOnUse">
<stop stop-color="#1C8EF4"/>
<stop offset="1" stop-color="#00CFDD"/>
</linearGradient>
<linearGradient id="paint5_linear" x1="74733.7" y1="119061" x2="115629" y2="49099.2" gradientUnits="userSpaceOnUse">
<stop stop-color="#965CF2"/>
<stop offset="1" stop-color="#FF8ADC"/>
</linearGradient>
<linearGradient id="paint6_linear" x1="116560" y1="35315.4" x2="77070.1" y2="135123" gradientUnits="userSpaceOnUse">
<stop stop-color="#6D6AFE"/>
<stop offset="1" stop-color="#3FB0F7"/>
</linearGradient>
<linearGradient id="paint7_linear" x1="1080.28" y1="921.332" x2="1157.9" y2="755.437" gradientUnits="userSpaceOnUse">
<stop stop-color="#965CF2"/>
<stop offset="1" stop-color="#FF8ADC"/>
</linearGradient>
<linearGradient id="paint8_linear" x1="228328" y1="126587" x2="231155" y2="118812" gradientUnits="userSpaceOnUse">
<stop stop-color="#965CF2"/>
<stop offset="1" stop-color="#FF8ADC"/>
</linearGradient>
<linearGradient id="paint9_linear" x1="795.407" y1="941.281" x2="736.455" y2="1034.48" gradientUnits="userSpaceOnUse">
<stop stop-color="#FF66BC"/>
<stop offset="0.56" stop-color="#FF8ADC"/>
<stop offset="1" stop-color="#FFBBA8"/>
</linearGradient>
<linearGradient id="paint10_linear" x1="211921" y1="321559" x2="172214" y2="322884" gradientUnits="userSpaceOnUse">
<stop stop-color="#FF66BC"/>
<stop offset="0.56" stop-color="#FF8ADC"/>
<stop offset="1" stop-color="#FFBBA8"/>
</linearGradient>
<linearGradient id="paint11_linear" x1="159930" y1="226580" x2="166396" y2="212423" gradientUnits="userSpaceOnUse">
<stop stop-color="#965CF2"/>
<stop offset="1" stop-color="#FF8ADC"/>
</linearGradient>
<linearGradient id="paint12_linear" x1="268529" y1="398500" x2="264101" y2="334045" gradientUnits="userSpaceOnUse">
<stop stop-color="#965CF2"/>
<stop offset="1" stop-color="#FF8ADC"/>
</linearGradient>
<linearGradient id="paint13_linear" x1="356597" y1="484705" x2="229662" y2="140254" gradientUnits="userSpaceOnUse">
<stop stop-color="#965CF2"/>
<stop offset="1" stop-color="#FF8ADC"/>
</linearGradient>
<linearGradient id="paint14_linear" x1="304552" y1="96707.3" x2="291786" y2="120892" gradientUnits="userSpaceOnUse">
<stop stop-color="#6D6AFE"/>
<stop offset="1" stop-color="#3FB0F7"/>
</linearGradient>
<linearGradient id="paint15_linear" x1="65947.7" y1="55288.5" x2="64348.3" y2="57112.4" gradientUnits="userSpaceOnUse">
<stop stop-color="#6D6AFE"/>
<stop offset="1" stop-color="#3FB0F7"/>
</linearGradient>
<linearGradient id="paint16_linear" x1="36389.7" y1="29938.5" x2="34066.8" y2="31358.9" gradientUnits="userSpaceOnUse">
<stop stop-color="#6D6AFE"/>
<stop offset="1" stop-color="#3FB0F7"/>
</linearGradient>
<linearGradient id="paint17_linear" x1="514563" y1="294155" x2="582308" y2="194326" gradientUnits="userSpaceOnUse">
<stop stop-color="#965CF2"/>
<stop offset="1" stop-color="#FF8ADC"/>
</linearGradient>
<linearGradient id="paint18_linear" x1="506477" y1="226094" x2="472218" y2="319484" gradientUnits="userSpaceOnUse">
<stop stop-color="#6D6AFE"/>
<stop offset="1" stop-color="#3FB0F7"/>
</linearGradient>
<linearGradient id="paint19_linear" x1="148159" y1="89690.6" x2="153554" y2="77148.2" gradientUnits="userSpaceOnUse">
<stop stop-color="#965CF2"/>
<stop offset="1" stop-color="#FF8ADC"/>
</linearGradient>
<linearGradient id="paint20_linear" x1="72789" y1="44368.8" x2="74985.3" y2="41575.9" gradientUnits="userSpaceOnUse">
<stop stop-color="#6D6AFE"/>
<stop offset="1" stop-color="#3FB0F7"/>
</linearGradient>
<linearGradient id="paint21_linear" x1="641.725" y1="15.0027" x2="641.921" y2="155.232" gradientUnits="userSpaceOnUse">
<stop stop-color="#5A2D68"/>
<stop offset="1" stop-color="#22043D"/>
</linearGradient>
<linearGradient id="paint22_linear" x1="645.713" y1="254.479" x2="639.624" y2="252.279" gradientUnits="userSpaceOnUse">
<stop stop-color="#FF8A78"/>
<stop offset="1" stop-color="#FFA799"/>
</linearGradient>
<linearGradient id="paint23_linear" x1="32826.2" y1="37015.2" x2="32275.1" y2="15508.9" gradientUnits="userSpaceOnUse">
<stop stop-color="#965CF2"/>
<stop offset="1" stop-color="#FF8ADC"/>
</linearGradient>
<linearGradient id="paint24_linear" x1="131631" y1="26388.8" x2="128019" y2="12578.2" gradientUnits="userSpaceOnUse">
<stop stop-color="#965CF2"/>
<stop offset="1" stop-color="#FF8ADC"/>
</linearGradient>
<linearGradient id="paint25_linear" x1="23930.9" y1="3183.04" x2="24238.8" y2="3495.62" gradientUnits="userSpaceOnUse">
<stop stop-color="#FF8A78"/>
<stop offset="1" stop-color="#FFA799"/>
</linearGradient>
<linearGradient id="paint26_linear" x1="22037" y1="15533" x2="21858" y2="15486.9" gradientUnits="userSpaceOnUse">
<stop stop-color="#FF8A78"/>
<stop offset="1" stop-color="#FFA799"/>
</linearGradient>
<linearGradient id="paint27_linear" x1="45889.9" y1="39784.2" x2="40843.1" y2="20477.9" gradientUnits="userSpaceOnUse">
<stop stop-color="#965CF2"/>
<stop offset="1" stop-color="#FF8ADC"/>
</linearGradient>
<linearGradient id="paint28_linear" x1="41239.6" y1="41679.7" x2="43500.6" y2="39163.3" gradientUnits="userSpaceOnUse">
<stop stop-color="#FF8A78"/>
<stop offset="1" stop-color="#FFA799"/>
</linearGradient>
<linearGradient id="paint29_linear" x1="549.111" y1="606.825" x2="579.725" y2="665.205" gradientUnits="userSpaceOnUse">
<stop stop-color="#A77EF7"/>
<stop offset="1" stop-color="#5E65D6"/>
</linearGradient>
<linearGradient id="paint30_linear" x1="29861.6" y1="28284.8" x2="29650.4" y2="28911.2" gradientUnits="userSpaceOnUse">
<stop stop-color="#FF8A78"/>
<stop offset="1" stop-color="#FFA799"/>
</linearGradient>
<linearGradient id="paint31_linear" x1="563.632" y1="613.741" x2="555.284" y2="630.021" gradientUnits="userSpaceOnUse">
<stop stop-color="#FFB89E"/>
<stop offset="1" stop-color="#FFA799"/>
</linearGradient>
<linearGradient id="paint32_linear" x1="545.491" y1="574.411" x2="507.996" y2="596.233" gradientUnits="userSpaceOnUse">
<stop stop-color="#8A4791"/>
<stop offset="1" stop-color="#562E65"/>
</linearGradient>
<linearGradient id="paint33_linear" x1="42031.2" y1="54577.3" x2="44082.5" y2="52786.9" gradientUnits="userSpaceOnUse">
<stop stop-color="#FF8A78"/>
<stop offset="1" stop-color="#FFA799"/>
</linearGradient>
<linearGradient id="paint34_linear" x1="535.72" y1="909.124" x2="499.047" y2="1087.43" gradientUnits="userSpaceOnUse">
<stop stop-color="#40457F"/>
<stop offset="1" stop-color="#1E2353"/>
</linearGradient>
<linearGradient id="paint35_linear" x1="544.052" y1="1136.91" x2="530.148" y2="1157.17" gradientUnits="userSpaceOnUse">
<stop stop-color="#3773B9"/>
<stop offset="1" stop-color="#003C76"/>
</linearGradient>
<linearGradient id="paint36_linear" x1="92860.6" y1="326857" x2="52356" y2="350547" gradientUnits="userSpaceOnUse">
<stop stop-color="#40457F"/>
<stop offset="1" stop-color="#1E2353"/>
</linearGradient>
<linearGradient id="paint37_linear" x1="22431.8" y1="20789.6" x2="21763.6" y2="21223.9" gradientUnits="userSpaceOnUse">
<stop stop-color="#3773B9"/>
<stop offset="1" stop-color="#003C76"/>
</linearGradient>
<linearGradient id="paint38_linear" x1="84118.8" y1="162559" x2="77429.5" y2="198706" gradientUnits="userSpaceOnUse">
<stop stop-color="#A77EF7"/>
<stop offset="1" stop-color="#5E65D6"/>
</linearGradient>
<linearGradient id="paint39_linear" x1="137439" y1="77920.6" x2="137930" y2="95167.7" gradientUnits="userSpaceOnUse">
<stop stop-color="#A77EF7"/>
<stop offset="1" stop-color="#5E65D6"/>
</linearGradient>
</defs>
</svg>
