<svg xmlns="http://www.w3.org/2000/svg" xmlns:xlink="http://www.w3.org/1999/xlink" viewBox="0 0 825.11 824.5"><defs><style>.cls-1{isolation:isolate;}.cls-2{fill:url(#linear-gradient);}.cls-3{fill:#bdd0fb;}.cls-4,.cls-9{fill:#fff;}.cls-4{mix-blend-mode:soft-light;}.cls-5{fill:#91b3fa;}.cls-6{fill:url(#linear-gradient-2);}.cls-7{fill:url(#linear-gradient-3);}.cls-8{opacity:0.85;}.cls-10{opacity:0.8;}.cls-11{fill:#7d97f4;}.cls-12{fill:url(#linear-gradient-4);}.cls-13{fill:url(#linear-gradient-5);}.cls-14{fill:url(#linear-gradient-6);}.cls-15{fill:url(#linear-gradient-7);}.cls-16{fill:url(#linear-gradient-8);}.cls-17{fill:url(#linear-gradient-9);}.cls-18{fill:url(#linear-gradient-10);}.cls-19{fill:url(#linear-gradient-11);}.cls-20{fill:url(#linear-gradient-12);}.cls-21{fill:url(#linear-gradient-13);}.cls-22{fill:url(#linear-gradient-14);}.cls-23{fill:url(#linear-gradient-15);}.cls-24{fill:url(#linear-gradient-16);}.cls-25{fill:url(#linear-gradient-17);}.cls-26{fill:url(#linear-gradient-18);}.cls-27{fill:url(#linear-gradient-19);}.cls-28{fill:url(#linear-gradient-20);}.cls-29{fill:url(#linear-gradient-21);}.cls-30{fill:url(#linear-gradient-22);}.cls-31{fill:url(#linear-gradient-23);}.cls-32{fill:url(#linear-gradient-24);}.cls-33{fill:url(#linear-gradient-25);}.cls-34{fill:url(#linear-gradient-26);}.cls-35{fill:url(#linear-gradient-27);}.cls-36{fill:url(#linear-gradient-28);}.cls-37{fill:url(#linear-gradient-29);}.cls-38{fill:url(#linear-gradient-30);}.cls-39{fill:url(#linear-gradient-31);}.cls-40{fill:url(#linear-gradient-32);}.cls-41{fill:url(#linear-gradient-33);}.cls-42{fill:url(#linear-gradient-34);}.cls-43{opacity:0.3;}.cls-44{fill:url(#linear-gradient-35);}.cls-45{fill:url(#linear-gradient-36);}.cls-46{fill:url(#linear-gradient-37);}.cls-47{fill:url(#linear-gradient-38);}.cls-48{fill:url(#linear-gradient-39);}.cls-49{fill:url(#linear-gradient-40);}.cls-50{fill:url(#linear-gradient-41);}.cls-51{fill:url(#linear-gradient-42);}.cls-52{fill:url(#linear-gradient-43);}.cls-53{fill:url(#linear-gradient-44);}.cls-54{fill:url(#linear-gradient-45);}.cls-55{fill:url(#linear-gradient-46);}.cls-56{fill:url(#linear-gradient-47);}.cls-57{fill:url(#linear-gradient-48);}.cls-58{fill:url(#linear-gradient-49);}.cls-59{fill:url(#linear-gradient-50);}.cls-60{fill:url(#linear-gradient-51);}.cls-61{fill:url(#linear-gradient-52);}.cls-62{fill:url(#linear-gradient-53);}</style><linearGradient id="linear-gradient" x1="866.89" y1="915.58" x2="276.52" y2="278.35" gradientUnits="userSpaceOnUse"><stop offset="0" stop-color="#dae3fe"/><stop offset="1" stop-color="#e9effd"/></linearGradient><linearGradient id="linear-gradient-2" x1="709.41" y1="191.25" x2="111.1" y2="646.81" gradientUnits="userSpaceOnUse"><stop offset="0" stop-color="#4f52ff"/><stop offset="1" stop-color="#4042e2"/></linearGradient><linearGradient id="linear-gradient-3" x1="354.38" y1="445.73" x2="528.26" y2="-174.15" xlink:href="#linear-gradient-2"/><linearGradient id="linear-gradient-4" x1="531.49" y1="725.43" x2="586.71" y2="725.43" gradientUnits="userSpaceOnUse"><stop offset="0" stop-color="#febbba"/><stop offset="1" stop-color="#ff928e"/></linearGradient><linearGradient id="linear-gradient-5" x1="565.28" y1="761.41" x2="557.15" y2="885.94" xlink:href="#linear-gradient-2"/><linearGradient id="linear-gradient-6" x1="466.66" y1="729.2" x2="583.18" y2="729.2" xlink:href="#linear-gradient-4"/><linearGradient id="linear-gradient-7" x1="538.55" y1="668.41" x2="669.09" y2="668.41" gradientUnits="userSpaceOnUse"><stop offset="0" stop-color="#09005d"/><stop offset="1" stop-color="#1a0f91"/></linearGradient><linearGradient id="linear-gradient-8" x1="486.9" y1="756.3" x2="478.78" y2="880.83" xlink:href="#linear-gradient-2"/><linearGradient id="linear-gradient-9" x1="1643.94" y1="470.8" x2="1502.55" y2="640.2" gradientTransform="matrix(-1, 0, 0, 1, 2189.75, 0)" xlink:href="#linear-gradient-7"/><linearGradient id="linear-gradient-10" x1="581.34" y1="606.72" x2="863.34" y2="464.72" gradientUnits="userSpaceOnUse"><stop offset="0" stop-color="#fe7062"/><stop offset="1" stop-color="#ff928e"/></linearGradient><linearGradient id="linear-gradient-11" x1="597.46" y1="576.92" x2="589.6" y2="526.45" xlink:href="#linear-gradient-4"/><linearGradient id="linear-gradient-12" x1="630.99" y1="634.03" x2="740.45" y2="634.03" xlink:href="#linear-gradient-4"/><linearGradient id="linear-gradient-13" x1="-965.41" y1="-86.93" x2="-912.4" y2="-50.92" gradientTransform="matrix(1, -0.06, 0.06, 1, 1530.81, 527.2)" xlink:href="#linear-gradient-4"/><linearGradient id="linear-gradient-14" x1="2158.68" y1="-129.54" x2="2014.92" y2="42.7" gradientTransform="matrix(-1, 0.06, 0.06, 1, 2720.75, 459.71)" xlink:href="#linear-gradient-7"/><linearGradient id="linear-gradient-15" x1="-997.08" y1="770.93" x2="-938.6" y2="810.65" gradientTransform="translate(1796.9 179.29) rotate(23.93)" xlink:href="#linear-gradient-4"/><linearGradient id="linear-gradient-16" x1="576.21" y1="725.69" x2="507.3" y2="744.58" gradientTransform="translate(21.71 -73.6) rotate(-2.83)" xlink:href="#linear-gradient-7"/><linearGradient id="linear-gradient-17" x1="539.81" y1="578.25" x2="490.92" y2="629.92" xlink:href="#linear-gradient-7"/><linearGradient id="linear-gradient-18" x1="510.26" y1="591.11" x2="488.07" y2="624.52" xlink:href="#linear-gradient-2"/><linearGradient id="linear-gradient-19" x1="-8101.27" y1="877.79" x2="-8100.55" y2="954.32" gradientTransform="matrix(-1, 0, 0, 1, -7408.43, 0)" xlink:href="#linear-gradient-7"/><linearGradient id="linear-gradient-20" x1="-8119.72" y1="792.33" x2="-8123.69" y2="761.29" gradientTransform="matrix(-1, 0, 0, 1, -7408.43, 0)" xlink:href="#linear-gradient-4"/><linearGradient id="linear-gradient-21" x1="-8204.66" y1="878.77" x2="-8203.94" y2="955.29" gradientTransform="matrix(-1, 0, 0, 1, -7408.43, 0)" xlink:href="#linear-gradient-7"/><linearGradient id="linear-gradient-22" x1="-8206.5" y1="802.97" x2="-8210.37" y2="772.72" gradientTransform="matrix(-1, 0, 0, 1, -7408.43, 0)" xlink:href="#linear-gradient-4"/><linearGradient id="linear-gradient-23" x1="-8233.54" y1="688.03" x2="-8114.45" y2="688.03" gradientTransform="matrix(-1, 0, 0, 1, -7408.43, 0)" xlink:href="#linear-gradient-7"/><linearGradient id="linear-gradient-24" x1="-8208.84" y1="669.76" x2="-8204.51" y2="661.09" gradientTransform="matrix(-1, 0, 0, 1, -7408.43, 0)" xlink:href="#linear-gradient-2"/><linearGradient id="linear-gradient-25" x1="726.74" y1="593.17" x2="886.74" y2="384.17" xlink:href="#linear-gradient-10"/><linearGradient id="linear-gradient-26" x1="-6788.11" y1="-1877.32" x2="-7112.92" y2="-1295.83" gradientTransform="matrix(-1, 0, 0, 1, -7408.43, 0)" gradientUnits="userSpaceOnUse"><stop offset="0" stop-color="#e1473d"/><stop offset="1" stop-color="#e9605a"/></linearGradient><linearGradient id="linear-gradient-27" x1="-8177.26" y1="604.29" x2="-8123.03" y2="604.29" gradientTransform="matrix(-1, 0, 0, 1, -7408.43, 0)" xlink:href="#linear-gradient-4"/><linearGradient id="linear-gradient-28" x1="-8127.28" y1="536.31" x2="-8026.01" y2="536.31" gradientTransform="matrix(-1, 0, 0, 1, -7408.43, 0)" xlink:href="#linear-gradient-4"/><linearGradient id="linear-gradient-29" x1="-8163.74" y1="479.51" x2="-8128.5" y2="443.35" gradientTransform="matrix(-1, 0, 0, 1, -7408.43, 0)" xlink:href="#linear-gradient-4"/><linearGradient id="linear-gradient-30" x1="-8112.63" y1="420.57" x2="-8156.57" y2="478.7" gradientTransform="matrix(-1, 0, 0, 1, -7408.43, 0)" xlink:href="#linear-gradient-4"/><linearGradient id="linear-gradient-31" x1="-8146.19" y1="434.59" x2="-8093.7" y2="434.59" gradientTransform="matrix(-1, 0, 0, 1, -7408.43, 0)" xlink:href="#linear-gradient-7"/><linearGradient id="linear-gradient-32" x1="-8176.99" y1="466.61" x2="-8141.74" y2="430.45" gradientTransform="matrix(-1, 0, 0, 1, -7408.43, 0)" xlink:href="#linear-gradient-4"/><linearGradient id="linear-gradient-33" x1="-6816.23" y1="-1893.02" x2="-7141.04" y2="-1311.54" xlink:href="#linear-gradient-26"/><linearGradient id="linear-gradient-34" x1="-12426.43" y1="687.3" x2="-12426.79" y2="665.67" gradientTransform="matrix(-1, 0, 0, 1, -11708.43, 0)" xlink:href="#linear-gradient-2"/><linearGradient id="linear-gradient-35" x1="302.64" y1="121.53" x2="197.63" y2="364.55" xlink:href="#linear-gradient-4"/><linearGradient id="linear-gradient-36" x1="15902.48" y1="694.82" x2="15746.91" y2="864.04" gradientTransform="translate(-15681.31 -60.2) rotate(0.54)" xlink:href="#linear-gradient-7"/><linearGradient id="linear-gradient-37" x1="15851.99" y1="707.39" x2="15865.81" y2="707.39" gradientTransform="translate(-15681.31 -60.2) rotate(0.54)" xlink:href="#linear-gradient-4"/><linearGradient id="linear-gradient-38" x1="9074" y1="8398.5" x2="9199" y2="8254.5" gradientTransform="translate(-15681.31 -60.2) rotate(0.54)" xlink:href="#linear-gradient-7"/><linearGradient id="linear-gradient-39" x1="15867.58" y1="662.73" x2="15712.01" y2="831.96" gradientTransform="translate(-15681.31 -60.2) rotate(0.54)" xlink:href="#linear-gradient-7"/><linearGradient id="linear-gradient-40" x1="15802.18" y1="706.68" x2="15814.11" y2="706.68" gradientTransform="translate(-15681.31 -60.2) rotate(0.54)" xlink:href="#linear-gradient-4"/><linearGradient id="linear-gradient-41" x1="9053.44" y1="8380.65" x2="9178.44" y2="8236.65" gradientTransform="translate(-15681.31 -60.2) rotate(0.54)" xlink:href="#linear-gradient-7"/><linearGradient id="linear-gradient-42" x1="-880.09" y1="-3495.5" x2="-674.09" y2="-3762.5" gradientTransform="matrix(-1, 0, 0, 1, -3814.62, 0)" xlink:href="#linear-gradient-10"/><linearGradient id="linear-gradient-43" x1="15908.87" y1="346.87" x2="15979.47" y2="346.87" gradientTransform="translate(-15681.31 -60.2) rotate(0.54)" xlink:href="#linear-gradient-4"/><linearGradient id="linear-gradient-44" x1="-6206.16" y1="334.1" x2="-6158.78" y2="441.89" gradientTransform="matrix(-1, -0.01, -0.01, 1, -5923.73, 33.43)" xlink:href="#linear-gradient-4"/><linearGradient id="linear-gradient-45" x1="15979.13" y1="299.14" x2="15998.9" y2="268.74" gradientTransform="translate(-15681.31 -60.2) rotate(0.54)" xlink:href="#linear-gradient-4"/><linearGradient id="linear-gradient-46" x1="-849.66" y1="-3472.02" x2="-643.66" y2="-3739.02" gradientTransform="matrix(-1, 0, 0, 1, -3814.62, 0)" xlink:href="#linear-gradient-10"/><linearGradient id="linear-gradient-47" x1="15754.38" y1="446.86" x2="15843.72" y2="446.86" gradientTransform="translate(-15681.31 -60.2) rotate(0.54)" xlink:href="#linear-gradient-4"/><linearGradient id="linear-gradient-48" x1="15822.98" y1="351.35" x2="15858.31" y2="351.35" gradientTransform="translate(-15681.31 -60.2) rotate(0.54)" xlink:href="#linear-gradient-4"/><linearGradient id="linear-gradient-49" x1="6314.59" y1="7900.41" x2="6301.39" y2="7856.88" gradientTransform="matrix(0.75, -0.66, 0.66, 0.75, -9772.98, -1364.02)" xlink:href="#linear-gradient-4"/><linearGradient id="linear-gradient-50" x1="6302.68" y1="7824.56" x2="6313.72" y2="7887.54" gradientTransform="matrix(0.75, -0.66, 0.66, 0.75, -9772.98, -1364.02)" xlink:href="#linear-gradient-7"/><linearGradient id="linear-gradient-51" x1="6301.1" y1="7900.21" x2="6289.22" y2="7861.04" gradientTransform="matrix(0.75, -0.66, 0.66, 0.75, -9772.98, -1364.02)" xlink:href="#linear-gradient-4"/><linearGradient id="linear-gradient-52" x1="15582.92" y1="479.56" x2="15632.22" y2="684.98" gradientTransform="translate(-15400.79)" xlink:href="#linear-gradient-7"/><linearGradient id="linear-gradient-53" x1="15549.13" y1="533.9" x2="15577.07" y2="533.9" gradientTransform="translate(-15400.79)" xlink:href="#linear-gradient-4"/></defs><g class="cls-1"><g id="Layer_2" data-name="Layer 2"><g id="Metaphor_illustration" data-name="Metaphor illustration"><path class="cls-2" d="M784.62,552.44c-81.12,189.62-295.26,271.06-463,257.17-45.81-3.79-138-11.42-209.95-79.47C-26.57,599.44-5.29,326.23,127,165.39,144.06,144.68,262,5.9,445.78,7.75c134.55,1.37,229,77.37,240.48,86.84a370.34,370.34,0,0,1,75.34,85.49C829.36,286,835.31,434,784.62,552.44Z"/><path class="cls-3" d="M8.91,4.11C8.14.84,12.75-1.34,15.57,1c28.66,23.23,97.51,92.81,80.35,214.41C74.39,367.93,111.19,423.6,157,457.56c0,0-62.92-16-102.5-72.46C-42.68,246.41,22.59,62.36,8.91,4.11Z"/><path class="cls-4" d="M30.72,51.76c3.58,17,6.78,34,9.25,51.14s4.54,34.25,5.89,51.44S48,188.74,48.08,206s-.57,34.42-1.36,51.68-1.47,34.65-.21,52.16,4.92,35.09,12.22,51.62c1.82,4.11,3.74,8.22,5.92,12.19s4.4,7.92,6.78,11.81a186.28,186.28,0,0,0,16.25,22.36,205.27,205.27,0,0,0,42.8,37.46,4.29,4.29,0,0,0,5.42-.62,3,3,0,0,0-.62-4.62h0c-3.83-2.68-7.62-5.41-11.25-8.27-1.85-1.4-3.61-2.87-5.41-4.32s-3.54-2.94-5.22-4.49a185.92,185.92,0,0,1-46.7-64.06,151.6,151.6,0,0,1-8.1-24.33,166.11,166.11,0,0,1-3.91-25.2c-1.37-17-.75-34.2-.22-51.47s.88-34.62.42-52q-.3-13-1.14-26c-.25-4.33-.6-8.65-.94-13s-.8-8.64-1.26-13q-2.79-25.89-7.42-51.57c-3.19-17.09-6.9-34.11-11.37-51a1.05,1.05,0,0,0-1.24-.67A.9.9,0,0,0,30.72,51.76Z"/><path class="cls-5" d="M83.14,369.29a7.22,7.22,0,0,1-11.81-2c-11.66-25.75-38-101.52,5.54-188.82,36.8-73.72,49.75-117.2,54.27-137.34a4.52,4.52,0,0,1,8.55-.83C159.13,84.35,210.45,234.21,83.14,369.29Z"/><path class="cls-4" d="M76.76,366.57a1.26,1.26,0,0,1-.39,0,2,2,0,0,1-2-2c0-1.25,2.46-126.39,49-231.21a2,2,0,1,1,3.65,1.62C80.85,239,78.42,363.39,78.4,364.63A2,2,0,0,1,76.76,366.57Z"/><path class="cls-6" d="M65,190.5l676.27-11.42c27.23-.46,49.08,22.89,47.47,50.71L765.44,630.1c-1.28,21.91-18.9,39.07-40.34,39.28L75,675.81C59,676,45.72,663,45.11,646.6L29.56,228.8C28.79,208.13,44.77,190.85,65,190.5Z"/><path class="cls-5" d="M75.35,200.7,734,189.83a45.54,45.54,0,0,1,46.22,48.25L757.52,618.93a39.73,39.73,0,0,1-39.28,37.38L85.15,662.42A28.88,28.88,0,0,1,56,634.63L40.85,237.14A35.11,35.11,0,0,1,75.35,200.7Z"/><path class="cls-3" d="M87.67,213.83l627.16-10.35a43.38,43.38,0,0,1,44,45.94L737.26,612.09a37.84,37.84,0,0,1-37.41,35.58L97,653.5A27.52,27.52,0,0,1,69.24,627L54.81,248.53A33.44,33.44,0,0,1,87.67,213.83Z"/><path class="cls-7" d="M735.49,189.51,74.11,200.43A35.25,35.25,0,0,0,39.47,237l1.06,28H780.3L781.91,238A45.76,45.76,0,0,0,735.49,189.51Z"/><g class="cls-8"><path class="cls-9" d="M94.91,214A5.95,5.95,0,1,1,89,208,6,6,0,0,1,94.91,214Z"/><path class="cls-9" d="M94.91,231.41a5.95,5.95,0,1,1-6-5.95A6,6,0,0,1,94.91,231.41Z"/><path class="cls-9" d="M94.91,248.84a5.95,5.95,0,1,1-6-6A6,6,0,0,1,94.91,248.84Z"/></g><g class="cls-10"><polygon class="cls-9" points="321.5 614.06 268.37 616.83 268.37 535.47 321.5 533.57 321.5 614.06"/><polygon class="cls-9" points="407.57 609.57 356.3 612.24 356.3 506 407.57 504.44 407.57 609.57"/><polygon class="cls-9" points="490.69 605.23 441.17 607.81 441.17 469.05 490.69 467.89 490.69 605.23"/><polygon class="cls-9" points="571 601.03 523.15 603.53 523.15 422.22 571 421.56 571 601.03"/><path class="cls-9" d="M551.49,312.81a8.59,8.59,0,0,0-11.37,2.48q-3.82,5.82-7.91,11.39C481.24,396,397.48,437,279.68,448.09c-3.84.36-6.87.64-9.12.93a22.56,22.56,0,0,0-5.6,1.29,9.24,9.24,0,0,0-5.17,4.63c-2,4.21.24,9,5,10.63a10.29,10.29,0,0,0,3.61.57,10.75,10.75,0,0,0,3.91-.85c1.72-.26,5.42-.62,9-1,21.57-2.11,71.33-6.94,124.69-26.81C465.76,415.25,512.47,381,545.72,335.72c3-4,5.8-8.11,8.53-12.29A7.47,7.47,0,0,0,551.49,312.81Z"/><path class="cls-9" d="M555.15,360.1a8,8,0,0,1-8.23-7.21l-2.36-33.82-34.71,21.4a8.88,8.88,0,0,1-11.69-2.19,7.43,7.43,0,0,1,2.32-10.81l58.7-36,4.19,60.38a7.91,7.91,0,0,1-7.68,8.19Z"/></g><rect class="cls-11" x="612.36" y="712.53" width="7.77" height="83.98"/><path class="cls-11" d="M650.25,798.13h-68a5.07,5.07,0,0,1,5.06-5.06h57.9a5.06,5.06,0,0,1,5.06,5.06Z"/><rect class="cls-11" x="574.83" y="693.71" width="85.52" height="24.25" rx="8.35"/><path class="cls-12" d="M558.91,656.53S547.37,658.32,534.4,667a6.46,6.46,0,0,0-2.86,6.18c1.55,12.31,7.94,52.14,29,91a9.8,9.8,0,0,1,.94,6.72l-3.66,17L551,794.33h17.48l11.64-31.5-5-1.58a9.4,9.4,0,0,1-6.57-8.81L568,718.65c.5-15-9.23-25.44-9.23-25.44l27.92-1.35Z"/><path class="cls-13" d="M544.21,797.4c-1.59,2.08,17.14,4.83,26.6.27,0,0,13.11-22.81,13.11-34.56,0,0-1-2.4-8.74-1.86,0,0-4.4,27-9,30s-13,.3-13,.3S546.56,794.32,544.21,797.4Z"/><path class="cls-14" d="M583.18,693.71c-.15-.26-30.06-3.6-30.06-3.6A69.07,69.07,0,0,1,551,711.72c-3.06,12.52-47,66.76-47,66.76l4.6,14.59a74.06,74.06,0,0,1-42,2.53l28.53-17.12s26.7-91,43.06-107.24l30-10.37Z"/><path class="cls-15" d="M650.25,640.76s17.23,25.63,18.64,37.32-4.72,16.44-22.8,17.22-66.34.77-66.34.77l-41.2-35.2s30-10.72,37.83-13.75S650.25,640.76,650.25,640.76Z"/><path class="cls-16" d="M506.93,788.16s5,4.8,1.61,10.14c0,0-39.26,7-49.93,3.8,0,0,2.22-5.05,14.22-10.8L472,792a1.43,1.43,0,0,0,.94,2.57C480.81,794.1,497.18,792.65,506.93,788.16Z"/><path class="cls-17" d="M572.08,519.32c0,2.39,21.5,90.81,21.5,90.81l61.28,18a27.53,27.53,0,0,0,31.07-11.74h0a55.37,55.37,0,0,0-17.4-76.4l-8.67-5.46a162.77,162.77,0,0,1-47-44.79l-3.27-4.69Z"/><path class="cls-11" d="M676.45,604.75a.24.24,0,0,1-.21-.12.24.24,0,0,1,.08-.34c7.25-4.36,7.94-14.25,7.91-18.3a47.56,47.56,0,0,0-6.18-23c-7.13-12.56-19.47-21.11-31.4-29.37l-2.47-1.72c-12.2-8.49-25.67-18.79-31.16-33.71a.25.25,0,0,1,.47-.18c5.44,14.79,18.84,25,31,33.48l2.47,1.71c12,8.3,24.37,16.88,31.56,29.54A48.21,48.21,0,0,1,684.73,586c0,4.14-.68,14.24-8.15,18.73A.31.31,0,0,1,676.45,604.75Z"/><path class="cls-11" d="M671.48,591.6h-.05a.27.27,0,0,1-.2-.3c1.62-8.2,1.38-15.52-.71-21.76-3.78-11.29-13.8-19.51-22.11-25.4-1.68-1.19-3.4-2.38-5.07-3.53-7.72-5.31-15.69-10.8-21.48-18.28a.24.24,0,0,1,0-.35.25.25,0,0,1,.35,0c5.74,7.43,13.69,12.89,21.37,18.18,1.67,1.15,3.4,2.34,5.07,3.53,8.38,5.94,18.48,14.23,22.3,25.65,2.12,6.33,2.36,13.73.73,22A.24.24,0,0,1,671.48,591.6Z"/><path class="cls-18" d="M603.65,637.36s-20.07-19.1-29.94-31.76a26.84,26.84,0,0,1-4.55-24.16c4.51-15.2,12.52-30.93,13.25-33.38,1.12-3.76,23.62-3.6,23.62-3.6s44.28,28.73,61.67,77.41L648.17,628s-11.56-19.39-23-31.72c0,0,19.77,26.1,20.46,36.79Z"/><path class="cls-19" d="M576.37,521.92c.23.78,9.43,25.41,9.89,25.81s12.88,1.07,18.72-2.92l-14.5-28.36Z"/><path class="cls-20" d="M562.77,638.78l14.74-14.21,20.4,8.62s20.3,3.14,31.92,0L641.45,630l26.25-8.17,4.13,11.65a7,7,0,0,1-2.57,8.06,45.35,45.35,0,0,1-6.63,4.13c-3.46,1.52-85.23-1-85.23-1Z"/><path class="cls-21" d="M578.75,481.2s-10.63,5.22-17.15,21.39S561,525.72,568,526.32s17.39-.14,27.81-10.94S592.61,474.94,578.75,481.2Z"/><path class="cls-22" d="M588,507.4s6.92-23.51-13.53-22.62l-4.61,3.63s-8.22-12.35,3.73-19.14,30.62-2.41,36.8,13.86,3.72,27.15-4.54,35.58-12.36-.37-12.36-.37,4.32-7.68,2.17-11.54S589.3,508,589.3,508Z"/><path class="cls-23" d="M588.05,511.51s9.52-10.13,13-2.87-9.47,9.05-14.35,9.33Z"/><path class="cls-24" d="M618.56,645.48h-.2l-85.52-.1a3.83,3.83,0,0,1,0-7.65l85.52.09a3.83,3.83,0,0,1,.19,7.65Z"/><path class="cls-25" d="M456,567.83h71.22a13.58,13.58,0,0,1,12.27,7.79l32.93,69.82H483.88a8.25,8.25,0,0,1-7.67-5.22l-25.53-64.61A5.69,5.69,0,0,1,456,567.83Z"/><path class="cls-26" d="M506.14,603.63c1.55,4.8.41,9.45-2.54,10.4s-6.6-2.17-8.14-7-.4-9.45,2.55-10.4S504.6,598.84,506.14,603.63Z"/><path class="cls-27" d="M716.06,787.54a103.19,103.19,0,0,1,1.25,10.9,4.7,4.7,0,0,1-4.23,5c-8.75.85-28.68,2.41-41.4.58a2.13,2.13,0,0,1-1.17-3.67c5.24-4.89,17.91-14.4,38.77-16.48Z"/><path class="cls-28" d="M720.41,776.31,716,787.16a3.62,3.62,0,0,1-3.71,2.24,19.32,19.32,0,0,1-3.62-.7,4.75,4.75,0,0,1-3.16-5.91l3.34-11.17Z"/><path class="cls-29" d="M796.08,796.18s-8.86,7.42-12.32,16.93a4,4,0,0,0,3.84,5.37h18.24a4.3,4.3,0,0,0,4.25-5C808.93,806.88,805.58,796.21,796.08,796.18Z"/><path class="cls-30" d="M807.06,786.53s-1.79,7.93-3.17,13.16a1.67,1.67,0,0,1-2.19,1.14,15.32,15.32,0,0,0-6.64-1.2,1.29,1.29,0,0,1-1.42-1.29l-.17-13.16Z"/><path class="cls-31" d="M759.92,608.24,706,772.69s10.34,6.77,15.26,6.49l64-132.16s11.2,81.43,5.78,139.9l18.33,1.4s29.82-149.41,7.24-200.58Z"/><path class="cls-32" d="M785,645.6H785a.51.51,0,0,0,.45-.58l-2.09-16.6a.53.53,0,0,0-.58-.46.54.54,0,0,0-.46.59l2.1,16.6A.52.52,0,0,0,785,645.6Z"/><path class="cls-33" d="M749.82,463.53s43.67,3.88,37.49,35c0,0,24.14,45.43,35.43,99a3.15,3.15,0,0,1-2.55,3.74l-72.73,12.45a3.9,3.9,0,0,1-4.45-2.88l-17.38-67.16-6.77,31.23-21.52-5.61,18.11-91.76S718,464.11,749.82,463.53Z"/><path class="cls-34" d="M725.26,540.63h.11a.56.56,0,0,0,.42-.65l-6.07-27.84a.54.54,0,1,0-1.05.23l6.06,27.84A.55.55,0,0,0,725.26,540.63Z"/><path class="cls-35" d="M729.65,623.47a10.39,10.39,0,0,1,7.51-1l5.06,1.26a1.83,1.83,0,0,0,2.26-1.58l5.24-46.61c6.55,3.11,16,2.74,19.11,2.51L756.78,633H714.6Z"/><path class="cls-36" d="M617.58,522.36l1.28-4.23a8.37,8.37,0,0,1,4.9-5.36l23-9.28s.35-2.95-4.87-5-4-7.86-4-7.86,7.13,3.26,17.57,8.42c6,3,9.32,8.16,11.1,12.08l52.25,63.69-6.14,4.21A16.38,16.38,0,0,1,689,573.25L660.67,519A105.34,105.34,0,0,1,617.58,522.36Z"/><path class="cls-37" d="M735.67,433.82l13.43,37.59s-11.89,9.3-20.57,6.16L721.76,456S726.93,429.68,735.67,433.82Z"/><path class="cls-38" d="M695.58,420.32c0,.58,12.94,36.63,12.94,36.63l20.42-7.83-7.18-36S695.58,410.62,695.58,420.32Z"/><path class="cls-39" d="M718.17,421.9l5.27,18.65a2.57,2.57,0,0,1,.1.73c0,1.52-.37,6.75-5.7,6-4.84-.64-9.26-1.16-12.08.16a2.71,2.71,0,0,0-1.39,3.37,116.66,116.66,0,0,0,7.35,16.6,2.7,2.7,0,0,0,3.48,1.11c3.83-1.74,11.82-5.65,17.51-10.3a2.72,2.72,0,0,0,1-2.6c-.9-4.77-3.56-19.28-3.68-23.44-.11-3.9,4.27-6.88,6.2-8a2.66,2.66,0,0,0,1.25-1.68c.61-2.52,1.12-8.2-6.13-9.45a2.72,2.72,0,0,1-2.2-3.23c.61-3,.42-7.42-5.29-9.05s-9.45,1.83-11.3,4.51a2.73,2.73,0,0,1-3.36.9,2.13,2.13,0,0,0-2.4.43,2.66,2.66,0,0,1-3.9-.6c-1.69-2.49-4.77-5-10-3.29-9.23,3-8.78,13.63-5.4,19.41s13.2,2,17.85-1.85c3.54-2.92,8.92-1.17,11.3-.17A2.68,2.68,0,0,1,718.17,421.9Z"/><path class="cls-40" d="M731.84,439s-5.46-10.33-1.85-13.57,9.73-2.72,9.57,5.36C739.35,440.87,731.84,439,731.84,439Z"/><path class="cls-41" d="M764.59,578.77a51.2,51.2,0,0,0,5.34-.25l.39,0,15.9-74.15a.54.54,0,1,0-1.06-.22l-15.74,73.37c-2.36.21-15,1-21.67-3.68l13.77-64.42L758.65,504a.54.54,0,1,0-1,.5l2.69,5.07-13.84,64.72.28.21C751.64,578.09,759.4,578.77,764.59,578.77Z"/><path class="cls-5" d="M673.8,643.75H758v-8.69H673.8C675.6,635.06,675.6,643.75,673.8,643.75Z"/><path class="cls-42" d="M757,643.75a1,1,0,0,0,1-1v-6.69a1,1,0,0,0-1-1H672.23a1,1,0,1,1,0-2h90.55a3.64,3.64,0,0,1,3.64,3.64v5.55a3.43,3.43,0,0,1-3.43,3.42H672.23a1,1,0,1,1,0-2Z"/><path class="cls-11" d="M405.89,809.07a2.55,2.55,0,0,1-1.09-.25,3.14,3.14,0,0,1-1.45-4L461.46,657.4a2.7,2.7,0,0,1,3.64-1.59,3.13,3.13,0,0,1,1.45,4L408.44,807.24A2.78,2.78,0,0,1,405.89,809.07Z"/><path class="cls-11" d="M471.36,809.07a2.79,2.79,0,0,1-2.55-1.83L410.7,659.79a3.15,3.15,0,0,1,1.45-4,2.69,2.69,0,0,1,3.64,1.59L473.9,804.85a3.12,3.12,0,0,1-1.45,4A2.48,2.48,0,0,1,471.36,809.07Z"/><path class="cls-11" d="M682.23,805.83a2.7,2.7,0,0,1-1.1-.24,3.15,3.15,0,0,1-1.45-4L737.8,654.16a2.69,2.69,0,0,1,3.64-1.58,3.14,3.14,0,0,1,1.45,4L684.77,804A2.76,2.76,0,0,1,682.23,805.83Z"/><path class="cls-11" d="M747.69,805.83a2.76,2.76,0,0,1-2.54-1.83L687,656.55a3.14,3.14,0,0,1,1.45-4,2.69,2.69,0,0,1,3.64,1.58l58.12,147.45a3.15,3.15,0,0,1-1.45,4A2.7,2.7,0,0,1,747.69,805.83Z"/><path class="cls-11" d="M770.18,649.61a3,3,0,0,0-.8-2.74,4,4,0,0,0-2.93-1.2H381.85a4.56,4.56,0,0,0-3.68,1.75,3.37,3.37,0,0,0-.29,3.65l4.17,7.85a5.93,5.93,0,0,0,5.29,3H763.81a4.31,4.31,0,0,0,4.34-3.12Z"/><g class="cls-43"><path class="cls-11" d="M693.6,279.59a1.71,1.71,0,0,1,.31-2.26c1.47-1.23,3-2.43,4.58-3.54a1.69,1.69,0,0,1,2.37.4l0,0a1.7,1.7,0,0,1-.42,2.34c-1.5,1.06-3,2.19-4.35,3.37a1.72,1.72,0,0,1-2.4-.2A1.71,1.71,0,0,0,693.6,279.59Zm12.3-8.24a1,1,0,0,1-.1-.17,1.69,1.69,0,0,1,.72-2.29c1.71-.89,3.47-1.72,5.24-2.46a1.7,1.7,0,1,1,1.31,3.14c-1.68.7-3.36,1.48-5,2.33A1.71,1.71,0,0,1,705.9,271.35ZM719.7,266a1.94,1.94,0,0,1-.23-.53,1.69,1.69,0,0,1,1.21-2.07c1.86-.49,3.77-.9,5.66-1.22a1.7,1.7,0,0,1,.58,3.35c-1.81.3-3.61.69-5.38,1.16A1.72,1.72,0,0,1,719.7,266Zm14.66-2.1a1.68,1.68,0,0,1-.3-.91,1.71,1.71,0,0,1,1.65-1.75c1.92,0,3.87,0,5.79.08a1.7,1.7,0,1,1-.19,3.39c-1.82-.1-3.67-.12-5.5-.07A1.68,1.68,0,0,1,734.36,263.93Zm14.75,1.21a1.68,1.68,0,0,1-.27-1.28,1.71,1.71,0,0,1,2-1.34c1.88.37,3.78.83,5.63,1.36a1.7,1.7,0,1,1-.93,3.26c-1.77-.5-3.57-.93-5.36-1.29A1.68,1.68,0,0,1,749.11,265.14Zm14.11,4.45a1.68,1.68,0,0,1-.15-1.64,1.7,1.7,0,0,1,2.24-.87c1.76.78,3.51,1.65,5.19,2.57a1.7,1.7,0,0,1-1.63,3c-1.6-.88-3.26-1.7-4.93-2.44A1.63,1.63,0,0,1,763.22,269.59Zm38.36,49.19a1.84,1.84,0,0,1-.27-.66c-.31-1.8-.7-3.61-1.16-5.38a1.7,1.7,0,0,1,3.28-.86c.49,1.86.91,3.77,1.23,5.66a1.7,1.7,0,0,1-3.08,1.24ZM776,277.06a1.7,1.7,0,0,1,2.42-2.32c1.54,1.15,3.05,2.38,4.49,3.66a1.7,1.7,0,0,1-2.26,2.54c-1.36-1.22-2.8-2.39-4.26-3.48A1.64,1.64,0,0,1,776,277.06Zm21.45,27.52a1.78,1.78,0,0,1-.17-.3c-.7-1.69-1.49-3.36-2.34-5a1.7,1.7,0,1,1,3-1.58c.9,1.71,1.73,3.47,2.47,5.24a1.7,1.7,0,0,1-3,1.62Zm-10.67-17.4a1.7,1.7,0,0,1,2.7-2.05c1.24,1.46,2.44,3,3.56,4.57l0,0a1.7,1.7,0,0,1-2.79,1.94c-1.06-1.49-2.2-2.95-3.38-4.34Z"/><path class="cls-11" d="M802.54,330.67a1.61,1.61,0,0,1-.29-1c0-.87,0-1.76,0-2.64a1.7,1.7,0,0,1,3.4-.11c0,.93,0,1.87,0,2.79a1.7,1.7,0,0,1-3.11.93Z"/></g><g class="cls-43"><path class="cls-11" d="M781.83,378.15a1.71,1.71,0,0,1,.24-2.19q1-.91,1.89-1.86a1.7,1.7,0,0,1,2.4,0,1.68,1.68,0,0,1,0,2.4c-.65.67-1.32,1.32-2,2a1.7,1.7,0,0,1-2.4-.07Z"/><path class="cls-11" d="M681.73,367.33c-.44-.64-.87-1.3-1.29-2A1.69,1.69,0,0,1,681,363a1.71,1.71,0,0,1,2.35.53c1,1.53,2,3,3.08,4.45a1.7,1.7,0,0,1-2.72,2.05C683,369.17,682.35,368.25,681.73,367.33Zm-5.56-9.86a2,2,0,0,1-.14-.25c-.79-1.72-1.51-3.5-2.15-5.28a1.7,1.7,0,0,1,3.2-1.15c.61,1.69,1.29,3.38,2,5a1.7,1.7,0,0,1-3,1.66Zm13.37,19.33a1.7,1.7,0,0,1,2.61-2.16c1.27,1.27,2.61,2.51,4,3.67a1.7,1.7,0,1,1-2.2,2.59c-1.44-1.22-2.85-2.52-4.19-3.86Zm-17.92-33.16a1.85,1.85,0,0,1-.26-.61c-.39-1.85-.7-3.75-.93-5.63a1.7,1.7,0,1,1,3.37-.41c.22,1.78.52,3.58.89,5.34a1.7,1.7,0,0,1-3.07,1.31Zm29.27,42.26a1.7,1.7,0,0,1,0-1.86,1.71,1.71,0,0,1,2.35-.53c1.51,1,3.09,1.87,4.69,2.71a1.7,1.7,0,1,1-1.58,3c-1.68-.88-3.34-1.84-4.93-2.85A1.76,1.76,0,0,1,700.89,385.9ZM714,392.3a1.68,1.68,0,0,1-.2-1.53,1.7,1.7,0,0,1,2.18-1c1.69.61,3.43,1.15,5.17,1.62a1.7,1.7,0,1,1-.88,3.28c-1.83-.49-3.66-1.06-5.44-1.71A1.62,1.62,0,0,1,714,392.3Zm14.16,3.4a1.64,1.64,0,0,1-.28-1.17,1.7,1.7,0,0,1,1.9-1.47c1.78.22,3.6.38,5.39.45a1.7,1.7,0,0,1-.14,3.4c-1.89-.08-3.8-.24-5.68-.48A1.67,1.67,0,0,1,728.13,395.7Zm14.56.23a1.67,1.67,0,0,1-.28-.8,1.69,1.69,0,0,1,1.53-1.85c1.79-.17,3.59-.42,5.36-.74a1.7,1.7,0,0,1,.61,3.34c-1.87.34-3.77.6-5.65.78A1.72,1.72,0,0,1,742.69,395.93ZM757,393a1.91,1.91,0,0,1-.21-.43,1.7,1.7,0,0,1,1.09-2.14c1.7-.56,3.41-1.2,5.06-1.91a1.7,1.7,0,1,1,1.33,3.13c-1.74.74-3.54,1.42-5.33,2A1.71,1.71,0,0,1,757,393Zm13.25-6-.05-.09a1.7,1.7,0,0,1,.59-2.33c1.14-.68,2.27-1.4,3.36-2.14l1.18-.82a1.7,1.7,0,1,1,2,2.77l-1.24.86c-1.15.78-2.34,1.54-3.53,2.25A1.72,1.72,0,0,1,770.2,386.92Z"/><path class="cls-11" d="M670.23,329.09a1.7,1.7,0,0,1-.3-1c0-.92.05-1.85.1-2.78a1.7,1.7,0,0,1,3.4.19c0,.88-.09,1.77-.1,2.65a1.7,1.7,0,0,1-1.72,1.67A1.68,1.68,0,0,1,670.23,329.09Z"/></g><path class="cls-11" d="M687.81,319.91a.78.78,0,0,0,.3.87L696,326.4a42,42,0,0,0,1.4,13.56l-6.52,7.12a.8.8,0,0,0-.12.92l5.53,10.19a.77.77,0,0,0,.82.4l9.53-1.58a42.25,42.25,0,0,0,10.6,8.59l.41,9.66a.79.79,0,0,0,.57.72l11.11,3.3a.78.78,0,0,0,.87-.3l5.62-7.85a42.33,42.33,0,0,0,13.57-1.41l7.12,6.52a.79.79,0,0,0,.91.12l10.19-5.52A.81.81,0,0,0,768,370l-1.58-9.53A42.21,42.21,0,0,0,775,349.89l9.65-.42a.8.8,0,0,0,.73-.57l3.3-11.11a.78.78,0,0,0-.3-.87l-7.86-5.62a42.05,42.05,0,0,0-1.41-13.57l6.53-7.12a.78.78,0,0,0,.11-.91l-5.52-10.19a.8.8,0,0,0-.83-.41l-9.52,1.58a42,42,0,0,0-10.6-8.58l-.42-9.66a.79.79,0,0,0-.56-.73l-11.11-3.3a.82.82,0,0,0-.88.3l-5.62,7.86A42.3,42.3,0,0,0,727.13,288L720,281.45a.79.79,0,0,0-.91-.11l-10.2,5.52a.79.79,0,0,0-.4.83l1.58,9.53a42,42,0,0,0-8.59,10.59l-9.65.42a.79.79,0,0,0-.73.56Z"/><path class="cls-3" d="M728.61,335.4A11.65,11.65,0,0,1,746.82,321a11.66,11.66,0,0,1-.69,16.46,11.67,11.67,0,0,1-16.46-.68A12,12,0,0,1,728.61,335.4Zm17-11.56a9.14,9.14,0,0,0-.82-1,8.93,8.93,0,1,0-.53,12.62,8.92,8.92,0,0,0,1.35-11.58Z"/><path class="cls-3" d="M714.83,345.06a29,29,0,0,1-1.53-2.51h0c-.15-.28-.3-.55-.44-.83a30,30,0,0,1-1.72-4.25l0-.06c0-.06,0-.12,0-.17s-.07-.22-.1-.33a.7.7,0,0,1,.27-.76,1.11,1.11,0,0,1,.19-.09.7.7,0,0,1,.85.47,27.29,27.29,0,0,0,39.2,16.36,26.45,26.45,0,0,0,2.4-1.46,27.3,27.3,0,0,0,8.6-35.53,27.33,27.33,0,0,0-37-11c-.81.45-1.6.93-2.36,1.45A27.08,27.08,0,0,0,715,315a.88.88,0,0,1-.21.22.68.68,0,0,1-1-.91,28.65,28.65,0,1,1,40.81,38.26,29.22,29.22,0,0,1-2.52,1.54,28.65,28.65,0,0,1-37.3-9Z"/><g class="cls-43"><path class="cls-11" d="M624,256.84a1,1,0,0,1,.06-1.26c.56-.68,1.16-1.36,1.76-2a1.05,1.05,0,0,1,1.54,1.43c-.58.62-1.14,1.27-1.68,1.93a1,1,0,0,1-1.48.14A.83.83,0,0,1,624,256.84Z"/><path class="cls-11" d="M629.65,251.1a1,1,0,0,1,.2-1.39,43.38,43.38,0,0,1,3.68-2.79l.81-.54a1.09,1.09,0,0,1,1.45.31,1,1,0,0,1-.31,1.45c-.26.17-.52.34-.77.52a43,43,0,0,0-3.51,2.65,1,1,0,0,1-1.48-.12Zm9.14-5.94a.57.57,0,0,1-.08-.13,1.05,1.05,0,0,1,.48-1.4,44.52,44.52,0,0,1,5.16-2.14,1.06,1.06,0,0,1,1.34.65,1,1,0,0,1-.65,1.33,43.24,43.24,0,0,0-4.92,2.05A1.05,1.05,0,0,1,638.79,245.16Zm10.3-3.54a1.22,1.22,0,0,1-.16-.37,1.06,1.06,0,0,1,.81-1.25,44.92,44.92,0,0,1,5.53-.8,1,1,0,0,1,1.13,1,1,1,0,0,1-.95,1.13,42.79,42.79,0,0,0-5.28.77A1,1,0,0,1,649.09,241.62Zm10.86-.9a1.05,1.05,0,0,1,.91-1.64,47,47,0,0,1,5.56.57,1.06,1.06,0,0,1,.86,1.21,1,1,0,0,1-1.21.86,42.48,42.48,0,0,0-5.3-.54A1.08,1.08,0,0,1,660,240.72Zm10.75,1.77a1,1,0,0,1,1.16-1.59,44.43,44.43,0,0,1,5.25,1.9,1,1,0,1,1-.83,1.92,44.68,44.68,0,0,0-5-1.81A1,1,0,0,1,670.7,242.49Zm10,4.33a1,1,0,0,1,1.4-1.49,45,45,0,0,1,4.62,3.12,1.05,1.05,0,0,1-1.28,1.67,42.59,42.59,0,0,0-4.41-3A.92.92,0,0,1,680.69,246.82Zm8.62,6.64a1,1,0,0,1,1.61-1.33,43.41,43.41,0,0,1,3.72,4.17,1,1,0,1,1-1.65,1.29,43.16,43.16,0,0,0-3.55-4C689.4,253.57,689.35,253.52,689.31,253.46Zm9.28,13.4a.65.65,0,0,1-.09-.16,43.3,43.3,0,0,0-2.12-4.12L696,262a1,1,0,0,1,.36-1.44,1,1,0,0,1,1.44.35l.37.63a43,43,0,0,1,2.22,4.32,1,1,0,0,1-1.82,1Z"/></g><g class="cls-43"><path class="cls-11" d="M621.94,310.37a1.05,1.05,0,0,1,1.73-1.2,44.43,44.43,0,0,0,3.25,4.11,1,1,0,1,1-1.56,1.4,44.07,44.07,0,0,1-3.41-4.3Zm-2.81-4.58-.06-.1a45.86,45.86,0,0,1-2.29-5,1.05,1.05,0,1,1,2-.76,43.5,43.5,0,0,0,2.18,4.76,1,1,0,0,1-1.79,1.09Zm10,12.55a1.05,1.05,0,0,1,.07-1.28,1,1,0,0,1,1.48-.1,44.1,44.1,0,0,0,4.16,3.19,1.05,1.05,0,1,1-1.18,1.74,45.32,45.32,0,0,1-4.35-3.35A1.12,1.12,0,0,1,629.1,318.34ZM615.26,295.8a1,1,0,0,1-.15-.34,45.06,45.06,0,0,1-1-5.4,1,1,0,1,1,2.08-.26,44.92,44.92,0,0,0,1,5.15,1,1,0,0,1-1.88.85ZM638,324.34a1,1,0,0,1,1.34-1.53,42.61,42.61,0,0,0,4.8,2.11,1,1,0,0,1,.63,1.34,1.05,1.05,0,0,1-1.35.63,45.92,45.92,0,0,1-5-2.21A1,1,0,0,1,638,324.34Zm10,3.7a1.05,1.05,0,0,1,1.11-1.61,43.3,43.3,0,0,0,5.17.89,1.05,1.05,0,0,1-.24,2.09,47.44,47.44,0,0,1-5.41-.94A1,1,0,0,1,648,328Zm10.65,1.18a1.11,1.11,0,0,1-.18-.58,1.06,1.06,0,0,1,1-1.06,41.4,41.4,0,0,0,5.23-.37,1.06,1.06,0,0,1,1.18.91,1,1,0,0,1-.9,1.17,43.79,43.79,0,0,1-5.49.39A1.05,1.05,0,0,1,658.67,329.22Z"/><path class="cls-11" d="M613.91,285.11a1.07,1.07,0,0,1-.18-.58c0-.9,0-1.8.07-2.69a1.05,1.05,0,1,1,2.1.12c0,.84-.07,1.7-.07,2.56a1.05,1.05,0,0,1-1.92.59Z"/></g><path class="cls-11" d="M625.61,278.21a.54.54,0,0,0,.2.58l5.26,3.76a28.05,28.05,0,0,0,.94,9.08l-4.36,4.76a.53.53,0,0,0-.08.62l3.69,6.82a.57.57,0,0,0,.56.27l6.37-1.06a28.43,28.43,0,0,0,7.09,5.75l.28,6.46a.52.52,0,0,0,.38.48l7.44,2.21a.51.51,0,0,0,.58-.2l3.76-5.26a28.05,28.05,0,0,0,9.08-.94l4.76,4.37a.53.53,0,0,0,.61.07l6.82-3.69a.53.53,0,0,0,.27-.56l-1-6.37a28.17,28.17,0,0,0,5.74-7.09l6.46-.28a.53.53,0,0,0,.49-.38l2.21-7.43a.56.56,0,0,0-.2-.59l-5.26-3.76a28.08,28.08,0,0,0-.94-9.08l4.37-4.76a.53.53,0,0,0,.07-.61l-3.69-6.82a.53.53,0,0,0-.56-.27l-6.37,1.06a28.21,28.21,0,0,0-7.09-5.75l-.28-6.46a.53.53,0,0,0-.38-.49l-7.44-2.21a.54.54,0,0,0-.58.2L661,255.9a28.06,28.06,0,0,0-9.08,1l-4.76-4.37a.52.52,0,0,0-.61-.08l-6.82,3.7a.52.52,0,0,0-.27.55l1,6.38a28.17,28.17,0,0,0-5.74,7.08l-6.46.28a.55.55,0,0,0-.49.38Z"/><path class="cls-3" d="M652.79,288.64a7.86,7.86,0,1,1,.73.93A8.06,8.06,0,0,1,652.79,288.64Zm11.4-7.73a6.78,6.78,0,0,0-.53-.67,5.84,5.84,0,0,0-8.25-.34,5.75,5.75,0,0,0-1.88,4.05,5.81,5.81,0,0,0,1.53,4.2h0a5.84,5.84,0,0,0,9.13-7.24Z"/><path class="cls-3" d="M643.19,295.36c-.37-.55-.72-1.12-1.05-1.72a19.88,19.88,0,0,1-1.55-3.72l-.05-.17a1,1,0,0,1,.42-1.16,1.11,1.11,0,0,1,.29-.14,1.07,1.07,0,0,1,1.31.71,17.33,17.33,0,0,0,1.43,3.48h0l.1.18a17.51,17.51,0,0,0,5.92,6.31,17.74,17.74,0,0,0,4.33,2l0,0,.12,0a17.57,17.57,0,0,0,13.45-1.4c.53-.29,1-.61,1.55-.95a17.67,17.67,0,0,0-18.38-30.12c-.53.29-1,.6-1.54.94a17.65,17.65,0,0,0-5.25,5.59,1.22,1.22,0,0,1-.31.33,1,1,0,0,1-1.49-1.4,19.62,19.62,0,0,1,5.87-6.26c.55-.37,1.13-.72,1.72-1a19.76,19.76,0,0,1,20.56,33.7,17.69,17.69,0,0,1-1.73,1.05A19.8,19.8,0,0,1,643.19,295.36Z"/><path class="cls-44" d="M131.21,272.71c0-38.11,47.51-69,106.11-69s106.1,30.88,106.1,69-47.5,69-106.1,69a161.49,161.49,0,0,1-21.58-1.43,14.33,14.33,0,0,0-16.11,15.44,71.46,71.46,0,0,0,5.31,21,2.79,2.79,0,0,1-3.91,3.53c-21.31-11.77-29.13-33.84-32-49a14.44,14.44,0,0,0-6.39-9.47C143.23,309.22,131.21,291.87,131.21,272.71Z"/><path class="cls-45" d="M165.28,797.83s-1.7,9.11-2.58,18.13a6.23,6.23,0,0,0,5.89,6.8c12,.61,37.73,1.83,47,1.51a2,2,0,0,0,1.81-2.76h0a4.52,4.52,0,0,0-2.29-2.46l-42.3-19.93Z"/><path class="cls-46" d="M164,792.46l1.19,10.92s7.41,3.54,12.53-.31l-3-12.19Z"/><path class="cls-47" d="M166.94,587.35c-.59,2.85-4.36,142.15,9.94,204.73a2.13,2.13,0,0,1-1.27,2.46,36.92,36.92,0,0,1-12.15,2.35,3.67,3.67,0,0,1-3.6-2.66C155.74,779.7,136,706.93,134,637.57c-2.24-77.51,0-2.64,0-2.64l2.2-47.88Z"/><path class="cls-48" d="M116.36,802.12s-2.61,4.58-5.21,16.8a3.79,3.79,0,0,0,3.3,4.57c4,.43,10.07,1,15,1a3.79,3.79,0,0,0,3.79-4.19c-.5-4.47-2.12-11.82-7.29-17.58Z"/><path class="cls-49" d="M114.24,788.07l2.87,16.53s3,2.25,8.9.69l-1.27-17.76Z"/><path class="cls-50" d="M108,591.07c-12.88,73.39.91,181.71,5.7,202.93a3.32,3.32,0,0,0,2.65,2.53,22.12,22.12,0,0,0,9.53-.28,3,3,0,0,0,2.2-2.77c.83-17.11.63-122.21,12.38-163.63a9.37,9.37,0,0,1,3.68-5.17l22.18-15.45,1.93-25.3Z"/><path class="cls-51" d="M186.89,452.52c-36.49-1-76.87,8.85-76.87,8.85-11.49,63.38-3.21,136.7-3.21,136.7,28.19,7.68,60.19-4,60.19-4,4.95-26.49,27.57-101,27.57-101,17.86-2,32.6-7,44.77-13.73C230.21,468.62,226,455,224.18,446.9,211.23,450.79,198.15,452.81,186.89,452.52Z"/><path class="cls-52" d="M295.23,399.78a7,7,0,0,0-8.1-2.36c-5.59,22.64-33.93,40.77-62.95,49.48,1.81,8.07,6,21.72,15.16,32.51C287.62,452.86,295.23,399.78,295.23,399.78Z"/><path class="cls-53" d="M294.35,400.87c.36,1.2-4,3-6.51-1.93-.07-2.34-1.39-12.37,0-14.26C295.4,374.6,310,362,310,362a3.45,3.45,0,0,1,.38,4.78L303.26,374c1.44,2.66,3.21,4.91,4,8.12a9.84,9.84,0,0,1-1,7.21c-1.25,2.2-3,5.06-4.56,7.29A9.68,9.68,0,0,1,294.35,400.87Z"/><path class="cls-54" d="M300.16,378.72l-6.43,5.35-2.06,5.36,5.63,6.36s2-10.66,3.46-13S301.47,379.41,300.16,378.72Z"/><path class="cls-55" d="M123.69,496.85,110,461.37s-34.32,22.84-40.2,52.16a80.48,80.48,0,0,1,29.56,8.23C102,507.91,123.69,496.85,123.69,496.85Z"/><path class="cls-56" d="M153.16,530.39s-38.48,21.27-51.22,2.67a14.51,14.51,0,0,1-2.56-11.3,80.48,80.48,0,0,0-29.56-8.23A40.52,40.52,0,0,0,74,541.36c22.23,41.61,84.18-1.48,84.18-1.48Z"/><path class="cls-57" d="M150.2,422.53,138.27,456a1.21,1.21,0,0,0,.53,1.46c3.15,1.78,14.51,6.95,28.34-1.64a5.67,5.67,0,0,0,2.66-4l4-29Z"/><path class="cls-58" d="M175.77,391.66s12.53,24.13,10.8,33.82-17.53,8.83-31.26.82l-9.4-26Z"/><path class="cls-59" d="M156,413.58a1,1,0,0,0,.45-1.45,25.88,25.88,0,0,1-3.48-7.56s-2.28-1.49,5.87-3.36,20.3-4.77,22.91-11.67c2.55-6.72-3.81-23.75-14.36-10.33a1,1,0,0,1-1.56,0c-1.69-2.24-6.13-6.9-12.39-4.16-5.86,2.56-6.55,6.83-6.49,9a1,1,0,0,1-1.18,1c-2.94-.59-10-1.14-13.38,6.08-2.78,5.95-1,9.35.55,11a1,1,0,0,1-.44,1.64c-1.94.57-4.46,2.19-4.25,6.73.28,6.28,7.31,5.8,9.31,5.53a1,1,0,0,1,.87.32c1.7,1.91,9.34,10,17.68,11.08a1,1,0,0,0,1.06-1.31l-3.52-10.54a1,1,0,0,1,.55-1.22Z"/><path class="cls-60" d="M157.48,415.08s-9-6.31-9.73-1.07,8.1,7.68,12.5,5.76Z"/><path class="cls-61" d="M145.3,564l21-73.22a2.15,2.15,0,0,1,1.81-1.54c3.8-.44,14.81-1.69,27.52-2.76,15.3-1.3,33.08-2.35,43.7-1.45a2.14,2.14,0,0,1,1.76,3.08c-6.05,12.22-30.89,61.94-43.34,78.22a2.14,2.14,0,0,1-1.73.85l-48.64-.45A2.14,2.14,0,0,1,145.3,564Z"/><path class="cls-62" d="M150.36,546.32s-2.92-12-1.74-16.27,3.46-9.74,11.07-8.53A111.1,111.1,0,0,1,176.27,526s-.45,5.55-6.23,3.76l3.58,2.77s-.51,4.44-5.39,2.07l3.33,3.68s-2.1,3.65-5.69,1.31S160.56,547.76,150.36,546.32Z"/><path class="cls-5" d="M194.19,508.34a6.16,6.16,0,1,0,6.15-6.15A6.15,6.15,0,0,0,194.19,508.34Z"/><path class="cls-5" d="M168.33,512.31l-1-.28,4.27-14.48a6.28,6.28,0,0,1,4.73-4.4c13.5-2.82,50.25-3.42,50.61-3.42l0,1c-.37,0-37,.6-50.43,3.4a5.27,5.27,0,0,0-4,3.7Z"/></g></g></g></svg>