<svg xmlns="http://www.w3.org/2000/svg" xmlns:xlink="http://www.w3.org/1999/xlink" viewBox="0 0 835.46 828.73"><defs><style>.cls-1{fill:url(#linear-gradient);}.cls-2{fill:url(#linear-gradient-2);}.cls-3{fill:#bdd0fb;}.cls-23,.cls-4,.cls-53,.cls-9{fill:#fff;}.cls-4{opacity:0.5;}.cls-5{fill:#91b3fa;}.cls-6{fill:url(#linear-gradient-3);}.cls-7{fill:url(#linear-gradient-4);}.cls-8{fill:url(#linear-gradient-5);}.cls-9{opacity:0.61;}.cls-10{fill:url(#linear-gradient-6);}.cls-11{fill:url(#linear-gradient-7);}.cls-12{fill:url(#linear-gradient-8);}.cls-13{fill:url(#linear-gradient-9);}.cls-14{fill:url(#linear-gradient-10);}.cls-15{fill:url(#linear-gradient-11);}.cls-16{fill:url(#linear-gradient-12);}.cls-17{fill:#7d97f4;}.cls-18{fill:url(#linear-gradient-13);}.cls-19{fill:url(#linear-gradient-14);}.cls-20{fill:url(#linear-gradient-15);}.cls-21{fill:url(#linear-gradient-16);}.cls-22{fill:url(#linear-gradient-17);}.cls-23{opacity:0.75;}.cls-24{fill:url(#linear-gradient-18);}.cls-25{fill:url(#linear-gradient-19);}.cls-26{fill:url(#linear-gradient-20);}.cls-27{fill:url(#linear-gradient-21);}.cls-28{fill:url(#linear-gradient-22);}.cls-29{fill:url(#linear-gradient-23);}.cls-30{fill:url(#linear-gradient-24);}.cls-31{fill:url(#linear-gradient-25);}.cls-32{fill:url(#linear-gradient-26);}.cls-33{fill:url(#linear-gradient-27);}.cls-34{fill:url(#linear-gradient-28);}.cls-35{fill:url(#linear-gradient-29);}.cls-36{fill:url(#linear-gradient-30);}.cls-37{fill:url(#linear-gradient-31);}.cls-38{fill:url(#linear-gradient-32);}.cls-39{fill:url(#linear-gradient-33);}.cls-40{fill:url(#linear-gradient-34);}.cls-41{fill:url(#linear-gradient-35);}.cls-42{fill:url(#linear-gradient-36);}.cls-43{fill:url(#linear-gradient-37);}.cls-44{fill:url(#linear-gradient-38);}.cls-45{fill:url(#linear-gradient-39);}.cls-46{fill:url(#linear-gradient-40);}.cls-47{fill:url(#linear-gradient-41);}.cls-48{fill:url(#linear-gradient-42);}.cls-49{fill:url(#linear-gradient-43);}.cls-50{fill:url(#linear-gradient-44);}.cls-51{fill:url(#linear-gradient-45);}.cls-52{fill:url(#linear-gradient-46);}.cls-53{opacity:0.66;}.cls-54{opacity:0.3;}</style><linearGradient id="linear-gradient" x1="873.43" y1="919.15" x2="283.06" y2="281.92" gradientUnits="userSpaceOnUse"><stop offset="0" stop-color="#dae3fe"/><stop offset="1" stop-color="#e9effd"/></linearGradient><linearGradient id="linear-gradient-2" x1="241.16" y1="452.06" x2="708.23" y2="452.06" gradientUnits="userSpaceOnUse"><stop offset="0" stop-color="#4f52ff"/><stop offset="1" stop-color="#4042e2"/></linearGradient><linearGradient id="linear-gradient-3" x1="448.78" y1="448.26" x2="912.45" y2="730.24" gradientUnits="userSpaceOnUse"><stop offset="0" stop-color="#e1473d"/><stop offset="1" stop-color="#e9605a"/></linearGradient><linearGradient id="linear-gradient-4" y1="716.25" x2="298.38" y2="716.25" gradientUnits="userSpaceOnUse"><stop offset="0" stop-color="#09005d"/><stop offset="1" stop-color="#1a0f91"/></linearGradient><linearGradient id="linear-gradient-5" x1="224.49" y1="775.22" x2="226.53" y2="875.55" xlink:href="#linear-gradient-4"/><linearGradient id="linear-gradient-6" x1="530.07" y1="411.03" x2="377.05" y2="546.04" gradientUnits="userSpaceOnUse"><stop offset="0" stop-color="#ff928e"/><stop offset="1" stop-color="#fe7062"/></linearGradient><linearGradient id="linear-gradient-7" x1="350.06" y1="497.68" x2="314.25" y2="720.16" gradientUnits="userSpaceOnUse"><stop offset="0" stop-color="#a22b25"/><stop offset="1" stop-color="#c0423c"/></linearGradient><linearGradient id="linear-gradient-8" x1="4832.32" y1="1590.4" x2="4796.51" y2="1812.88" gradientTransform="matrix(-1, 0, 0, 1, 5392.38, 0)" xlink:href="#linear-gradient-7"/><linearGradient id="linear-gradient-9" x1="382.86" y1="537.82" x2="409.03" y2="497.58" xlink:href="#linear-gradient-7"/><linearGradient id="linear-gradient-10" x1="485.94" y1="361.02" x2="332.92" y2="496.03" xlink:href="#linear-gradient-6"/><linearGradient id="linear-gradient-11" x1="85.35" y1="733.38" x2="203.62" y2="733.38" xlink:href="#linear-gradient-7"/><linearGradient id="linear-gradient-12" x1="190.71" y1="710.48" x2="317.42" y2="710.48" xlink:href="#linear-gradient-4"/><linearGradient id="linear-gradient-13" x1="194.84" y1="720.98" x2="231.68" y2="720.98" xlink:href="#linear-gradient-7"/><linearGradient id="linear-gradient-14" x1="176.16" y1="606.94" x2="222.92" y2="606.94" xlink:href="#linear-gradient-7"/><linearGradient id="linear-gradient-15" x1="-6066.7" y1="-871.17" x2="-6084.18" y2="-928.8" gradientTransform="matrix(0.75, -0.67, 0.67, 0.75, 5339.92, -2812.73)" xlink:href="#linear-gradient-7"/><linearGradient id="linear-gradient-16" x1="-6082.47" y1="-971.59" x2="-6067.85" y2="-888.22" gradientTransform="matrix(0.75, -0.67, 0.67, 0.75, 5339.92, -2812.73)" xlink:href="#linear-gradient-4"/><linearGradient id="linear-gradient-17" x1="-6084.56" y1="-871.44" x2="-6100.29" y2="-923.29" gradientTransform="matrix(0.75, -0.67, 0.67, 0.75, 5339.92, -2812.73)" xlink:href="#linear-gradient-7"/><linearGradient id="linear-gradient-18" x1="608.63" y1="271.76" x2="656.63" y2="-130.24" xlink:href="#linear-gradient-2"/><linearGradient id="linear-gradient-19" x1="635.79" y1="275.01" x2="683.79" y2="-126.99" xlink:href="#linear-gradient-2"/><linearGradient id="linear-gradient-20" x1="662.59" y1="278.21" x2="710.59" y2="-123.79" xlink:href="#linear-gradient-2"/><linearGradient id="linear-gradient-21" x1="686.68" y1="281.08" x2="734.68" y2="-120.92" xlink:href="#linear-gradient-2"/><linearGradient id="linear-gradient-22" x1="711.49" y1="284.05" x2="759.49" y2="-117.95" xlink:href="#linear-gradient-2"/><linearGradient id="linear-gradient-23" x1="740.46" y1="287.5" x2="788.46" y2="-114.5" xlink:href="#linear-gradient-2"/><linearGradient id="linear-gradient-24" x1="424.57" y1="837.42" x2="835.55" y2="573.44" xlink:href="#linear-gradient-4"/><linearGradient id="linear-gradient-25" x1="-3580.53" y1="771.64" x2="-3578.62" y2="865.57" gradientTransform="matrix(-1, 0.02, 0.02, 1, -2968.66, 33.6)" xlink:href="#linear-gradient-4"/><linearGradient id="linear-gradient-26" x1="758.24" y1="708.67" x2="619.28" y2="449.07" xlink:href="#linear-gradient-4"/><linearGradient id="linear-gradient-27" x1="9269.97" y1="1220.99" x2="9113.73" y2="1413.07" gradientTransform="matrix(-0.99, -0.12, -0.12, 0.99, 9813.6, 390.19)" gradientUnits="userSpaceOnUse"><stop offset="0" stop-color="#febbba"/><stop offset="1" stop-color="#ff928e"/></linearGradient><linearGradient id="linear-gradient-28" x1="841.82" y1="402.9" x2="604.83" y2="575.39" xlink:href="#linear-gradient-6"/><linearGradient id="linear-gradient-29" x1="812.86" y1="522.29" x2="607.37" y2="700.78" xlink:href="#linear-gradient-6"/><linearGradient id="linear-gradient-30" x1="-14223.67" y1="3241.33" x2="-14215.33" y2="3182.06" gradientTransform="translate(15188.31 1452.77) rotate(16.22)" xlink:href="#linear-gradient-27"/><linearGradient id="linear-gradient-31" x1="-14261.94" y1="3114.34" x2="-14183.89" y2="3204.08" gradientTransform="translate(15188.31 1452.77) rotate(16.22)" xlink:href="#linear-gradient-27"/><linearGradient id="linear-gradient-32" x1="779.97" y1="686.46" x2="643.48" y2="431.48" xlink:href="#linear-gradient-4"/><linearGradient id="linear-gradient-33" x1="-14242.44" y1="3097.38" x2="-14164.39" y2="3187.11" gradientTransform="translate(15188.31 1452.77) rotate(16.22)" xlink:href="#linear-gradient-27"/><linearGradient id="linear-gradient-34" x1="608.26" y1="684.55" x2="705.39" y2="659.58" gradientTransform="matrix(1, 0, 0, 1, 0, 0)" xlink:href="#linear-gradient-27"/><linearGradient id="linear-gradient-35" x1="915.87" y1="504.64" x2="678.88" y2="677.13" xlink:href="#linear-gradient-6"/><linearGradient id="linear-gradient-36" x1="-6253.42" y1="215.45" x2="-5975.13" y2="215.45" gradientTransform="matrix(-1, 0, 0, 1, -5953.17, 0)" xlink:href="#linear-gradient-4"/><linearGradient id="linear-gradient-37" x1="-6186.25" y1="264.67" x2="-6184.35" y2="358.25" gradientTransform="matrix(-1, 0, 0, 1, -5953.17, 0)" xlink:href="#linear-gradient-4"/><linearGradient id="linear-gradient-38" x1="-18941.69" y1="4002.29" x2="-19044.14" y2="4124.03" gradientTransform="matrix(-0.96, 0.28, 0.28, 0.96, -19262.38, 1452.77)" xlink:href="#linear-gradient-4"/><linearGradient id="linear-gradient-39" x1="411.71" y1="70.19" x2="255.72" y2="194.68" xlink:href="#linear-gradient-6"/><linearGradient id="linear-gradient-40" x1="-15617.24" y1="3098.58" x2="-15609.49" y2="3043.58" gradientTransform="matrix(-0.96, 0.26, 0.26, 0.96, -15635.77, 1286.7)" xlink:href="#linear-gradient-27"/><linearGradient id="linear-gradient-41" x1="-15652.75" y1="2980.74" x2="-15580.32" y2="3064.01" gradientTransform="matrix(-0.96, 0.26, 0.26, 0.96, -15635.77, 1286.7)" xlink:href="#linear-gradient-27"/><linearGradient id="linear-gradient-42" x1="1417.37" y1="251.75" x2="1666.71" y2="-26.49" gradientTransform="translate(-1401.26)" xlink:href="#linear-gradient-4"/><linearGradient id="linear-gradient-43" x1="-15634.66" y1="2964.99" x2="-15562.23" y2="3048.27" gradientTransform="matrix(-0.96, 0.26, 0.26, 0.96, -15635.77, 1286.7)" xlink:href="#linear-gradient-27"/><linearGradient id="linear-gradient-44" x1="123.13" y1="255.29" x2="390.11" y2="129.3" gradientTransform="matrix(1, 0, 0, 1, 0, 0)" xlink:href="#linear-gradient-27"/><linearGradient id="linear-gradient-45" x1="288.1" y1="82.67" x2="319.57" y2="82.67" xlink:href="#linear-gradient-2"/><linearGradient id="linear-gradient-46" x1="309.27" y1="119.05" x2="535.43" y2="119.05" xlink:href="#linear-gradient-2"/></defs><g id="Layer_2" data-name="Layer 2"><g id="Metaphor_illustration" data-name="Metaphor illustration"><path class="cls-1" d="M791.16,556C710,745.63,495.9,827.07,328.13,813.19c-45.81-3.79-138-11.42-209.95-79.48C-20,603,1.25,329.81,133.56,169c17-20.71,135-159.49,318.76-157.63,134.55,1.36,229,77.37,240.48,86.84a370.46,370.46,0,0,1,75.34,85.48C835.9,289.61,841.85,437.53,791.16,556Z"/><path class="cls-2" d="M678.15,614H295.37a30.09,30.09,0,0,1-29.95-27.26L241.3,330.79a30.08,30.08,0,0,1,29.37-32.9l406.91-7.74a30.07,30.07,0,0,1,30.65,30.07V583.91A30.08,30.08,0,0,1,678.15,614Z"/><path class="cls-3" d="M265.76,353.6l17.11,221.32a18.61,18.61,0,0,0,18.36,17.17l367.38,3.85a18.62,18.62,0,0,0,18.8-18.61V339.06a18.6,18.6,0,0,0-19.24-18.59l-384.49,13.1A18.61,18.61,0,0,0,265.76,353.6Z"/><path class="cls-4" d="M307.39,555.64H638A17.49,17.49,0,0,0,655.5,538l-1.67-154.29-28.12,35.57L603,422.15s-20.39.72-25.87,1.45-30.68,6.54-30.68,6.54L522.09,442.5l-5.71,15.7-16.72,9.58-18.12,10.66H444.69L399.37,458.2H384l-27.94,16.27L329.9,504.83Z"/><path class="cls-5" d="M311,366.31l207.17-6.2a3.76,3.76,0,0,1,3.88,3.76v3.34a3.77,3.77,0,0,1-3.71,3.77L311.2,373.84a3.77,3.77,0,0,1-3.82-3.77h0A3.76,3.76,0,0,1,311,366.31Z"/><rect class="cls-5" x="307.38" y="383.67" width="214.71" height="8.96" rx="3.77"/><path class="cls-6" d="M308.52,555.64a7,7,0,0,1-6.47-9.79c23.88-56.27,50.71-86.9,82-93.65,21.58-4.65,38.27,3.92,53,11.49,15.67,8,29.2,15,47.75,8,14-5.29,21.66-15,29.78-25.3,10.13-12.84,20.59-26.1,42.75-29.87,11.09-1.87,19.75-.41,27.4.88,9.25,1.56,16.56,2.79,26.68-2.1,11.89-5.75,22.3-17.29,30.94-34.3a7,7,0,0,1,12.56,6.37c-10.07,19.83-22.64,33.49-37.38,40.61-14.16,6.84-24.83,5-35.15,3.3-7.17-1.21-14-2.35-22.69-.87-16.82,2.85-24.8,13-34.05,24.7-8.54,10.82-18.21,23.09-35.86,29.75-24.4,9.22-42.87-.27-59.16-8.64-13.85-7.11-26.94-13.84-43.59-10.25-26.15,5.64-50.39,34.36-72,85.39A7.05,7.05,0,0,1,308.52,555.64Z"/><path class="cls-7" d="M.71,624.62,76.23,814.54a22.49,22.49,0,0,0,24.11,14l198-14.62L227,611.91A12.61,12.61,0,0,0,215,603.78c-34.72.8-161.18,3.92-206.42,8A9.37,9.37,0,0,0,.71,624.62Z"/><path class="cls-5" d="M93.66,819.88,18.21,628.24a6,6,0,0,1,5.43-8.16L210.13,613a11.32,11.32,0,0,1,11,7.17L289.39,807Z"/><path class="cls-8" d="M365.72,822.32a6.41,6.41,0,0,1-6.42,6.41H98.85A9.74,9.74,0,0,1,89.11,819L85,814.23l270.44-2.32a10.42,10.42,0,0,1,10.27,10.41Z"/><path class="cls-9" d="M57.92,694.94a1.19,1.19,0,0,1-1.12-.77l-1.14-3c-7.46-19.38-15.91-41.34-19.89-51.5a8,8,0,0,1,7.46-10.93H76a1.21,1.21,0,0,1,0,2.41H43.23A5.6,5.6,0,0,0,38,638.83C42,649,50.44,671,57.9,690.34l1.14,3a1.2,1.2,0,0,1-.69,1.55A1.09,1.09,0,0,1,57.92,694.94Z"/><path class="cls-10" d="M240.57,621c-48.32-.8-101.63,12.69-101.63,12.69-14.41,84-2.52,181-2.52,181,69.86,1.18,78.15-2.71,78.15-2.71,6.22-35.13,36.68-137.28,36.68-137.28,23.61-2.93,43.06-9.74,59.08-18.74-12.22-14.17-18-32.19-20.48-42.84C272.77,618.36,255.48,621.2,240.57,621Z"/><path class="cls-11" d="M383.31,549.78a9.24,9.24,0,0,0-10.76-3c-7.11,30-44.39,54.39-82.7,66.29,2.5,10.65,8.26,28.67,20.48,42.84C373.9,620.14,383.31,549.78,383.31,549.78Z"/><path class="cls-12" d="M382.16,551.23c.49,1.58-5.26,4-8.65-2.47-.11-3.1-2-16.36-.15-18.88,9.85-13.43,28.95-30.26,28.95-30.26a4.54,4.54,0,0,1,.57,6.31l-9.27,9.65c1.94,3.51,4.31,6.46,5.41,10.7a13,13,0,0,1-1.29,9.55c-1.63,2.93-3.85,6.74-5.94,9.72A12.81,12.81,0,0,1,382.16,551.23Z"/><path class="cls-13" d="M389.56,521.85,381.12,529l-2.65,7.13,7.53,8.35s2.53-14.14,4.41-17.2S391.31,522.74,389.56,521.85Z"/><path class="cls-14" d="M157.47,680.43l-18.53-46.79S93.8,664.31,86.38,703.19c8.53.63,24,2.85,39.23,10.52C129,695.35,157.47,680.43,157.47,680.43Z"/><path class="cls-15" d="M196.91,724.46s-50.67,28.64-67.77,4.18a19.24,19.24,0,0,1-3.53-14.93c-15.19-7.67-30.7-9.89-39.23-10.52A53.64,53.64,0,0,0,92.21,740c30,54.79,111.41-3,111.41-3Z"/><path class="cls-16" d="M190.82,760.69l27.66-96.59a2.81,2.81,0,0,1,2.38-2c5-.59,19.53-2.23,36.3-3.65,20.19-1.71,43.64-3.09,57.65-1.91a2.83,2.83,0,0,1,2.32,4.06c-8,16.13-40.75,81.71-57.17,103.19a2.82,2.82,0,0,1-2.28,1.12l-64.17-.6A2.83,2.83,0,0,1,190.82,760.69Z"/><path class="cls-17" d="M260,650.06l20.05-3.34a1.44,1.44,0,0,1,1.6,1.87l-2,6a1.44,1.44,0,0,1-1.18,1l-19.3,2.58a1.45,1.45,0,0,1-1.59-1.76l1.23-5.25A1.43,1.43,0,0,1,260,650.06Z"/><path class="cls-5" d="M245,667l1.65-8.6a2,2,0,0,1,1.76-1.6l40.5-4.11a2,2,0,0,1,2.13,2.44l-2.57,10.72a2,2,0,0,1-1.84,1.52l-39.57,2A2,2,0,0,1,245,667Z"/><path class="cls-18" d="M197.51,737.35s-3.86-15.84-2.3-21.46,4.56-12.85,14.6-11.24a147.34,147.34,0,0,1,21.87,5.83s-.59,7.33-8.22,5l4.73,3.66s-.68,5.86-7.12,2.73l4.4,4.86s-2.77,4.81-7.51,1.72S211,739.26,197.51,737.35Z"/><path class="cls-19" d="M191.63,581.72l-15.38,44.47a1.61,1.61,0,0,0,.73,1.93c4.19,2.31,19.29,9,37.49-2.53a7.5,7.5,0,0,0,3.47-5.38l5-38.49Z"/><path class="cls-20" d="M225.08,540.55S242,572.33,239.8,585.17s-23.09,11.91-41.36,1.49l-12.77-34.32Z"/><path class="cls-21" d="M199.25,569.8a1.3,1.3,0,0,0,.57-1.91c-1.35-2.07-3.89-6.29-4.7-10,0,0-3-1.94,7.73-4.52s26.81-6.57,30.18-15.73c3.29-8.93-5.35-31.39-19.14-13.49a1.31,1.31,0,0,1-2.07,0c-2.26-2.94-8.2-9-16.45-5.34-7.72,3.46-8.59,9.12-8.48,12a1.3,1.3,0,0,1-1.55,1.33c-3.9-.74-13.26-1.38-17.64,8.22-3.6,7.92-1.26,12.4.88,14.59a1.31,1.31,0,0,1-.56,2.17c-2.57.78-5.88,3-5.55,9,.46,8.31,9.75,7.58,12.39,7.2a1.32,1.32,0,0,1,1.16.41c2.27,2.51,12.49,13.17,23.54,14.45a1.32,1.32,0,0,0,1.39-1.75l-4.79-13.9a1.33,1.33,0,0,1,.72-1.64Z"/><path class="cls-22" d="M201.17,571.78s-12-8.25-12.9-1.3S199.1,580.54,204.9,578Z"/><path class="cls-17" d="M585.75,43.21H746.4c13,0,23.47,8.35,23.47,18.64V337.94c0,10.58-10.79,19.15-24.11,19.15H595.69c-13.46,0-24.47-8.54-24.79-19.23L562.59,62.05C562.28,51.72,572.74,43.21,585.75,43.21Z"/><path class="cls-23" d="M594.34,55.05h143.5c11.58,0,21,7.73,21,17.28v256c0,9.8-9.64,17.75-21.53,17.75h-134c-12,0-21.86-7.91-22.15-17.82L573.66,72.51C573.38,62.94,582.72,55.05,594.34,55.05Z"/><path class="cls-5" d="M668.63,90.33a5.4,5.4,0,0,0-5.23-5.64c-9.94-.32-31.86,2.53-52.35,29.47-27.6,36.28-5.11,86.18,53.12,87.13,53.52.86,71.83-39.54,71-64a4.7,4.7,0,0,0-6.18-4.24l-57.08,18.8a4.39,4.39,0,0,1-5.76-4.37Z"/><path class="cls-17" d="M682.71,83.48l-9,53.59a3.56,3.56,0,0,0,5,3.82l49.14-22.69a7.09,7.09,0,0,0,3.79-8.63c-3.13-9.57-12.81-27.27-42-31.25A6.22,6.22,0,0,0,682.71,83.48Z"/><rect class="cls-24" x="598.57" y="234.74" width="16.88" height="101.26"/><rect class="cls-25" x="625.41" y="259.29" width="15.34" height="76.71"/><rect class="cls-26" x="651.5" y="277.7" width="15.34" height="58.3"/><rect class="cls-27" x="677.58" y="250.08" width="15.34" height="85.92"/><rect class="cls-28" x="702.9" y="234.74" width="16.88" height="101.26"/><rect class="cls-29" x="730.51" y="289.97" width="13.81" height="46.03"/><path class="cls-30" d="M834.88,576.12l-66.56,179.4a21,21,0,0,1-22.26,13.58l-185.67-9.38,62.37-190.58a11.81,11.81,0,0,1,11.14-7.87c32.51,0,150.94.17,193.37,3A8.78,8.78,0,0,1,834.88,576.12Z"/><path class="cls-5" d="M752.12,760.89l66.45-181a5.59,5.59,0,0,0-5.25-7.52L638.61,569.8a10.56,10.56,0,0,0-10.09,7L568.65,753.07Z"/><path class="cls-31" d="M497.55,769.08a6,6,0,0,0,6.14,5.86l243.77-5.65a9.12,9.12,0,0,0,8.9-9.33l3.73-4.55-253.16,3.71a9.73,9.73,0,0,0-9.38,10Z"/><path class="cls-32" d="M592.63,572.16c5.46-8.23,14.49-13.32,20.21-21.37,7.2-10.14,8.18-24.06,4.47-36-3.15-10.14-10-19-11.41-29.49-1.46-10.79-3.26-24,.88-34.41a38.19,38.19,0,0,1,4.2-7.58c13.49-19.59,33.82-28.61,56.89-22.73,15.61,4,30.54,11.78,41.47,24a64.1,64.1,0,0,1,16.11,34.33c1.59,12-4.8,27.08,2.45,37.6,6.9,10,17,10.4,26.8,15.7,10.66,5.79,21,12.53,29.37,21.44,10.92,11.68,18.08,27.91,15.28,43.66-1.83,10.3-9.06,17.9-11.56,28.17a57.06,57.06,0,0,0,.81,30.1c4.59,14.86,15.43,29.34,11.42,44.37a35.46,35.46,0,0,1-6.62,12.35,68.65,68.65,0,0,1-40.79,24.82c-17.78,3.46-33.82-2.84-50.07-9.58-9.46-3.91-18.91-7.9-27.8-13a128.19,128.19,0,0,1-47.89-48.86c-5.85-10.53-9.15-21.38-12.68-32.78-3.48-11.23-14.39-15.7-21.07-25.18C585.92,597.47,585.72,582.58,592.63,572.16Z"/><path class="cls-17" d="M766.51,602.75h.09a20.44,20.44,0,0,0,15.68-12,21.52,21.52,0,0,0-1.75-20c-5.7-8.59-16.41-11.34-26.89-13.42l-19-3.78c-10.71-2.13-21.66-4.93-27.42-13.52-6.15-9.16-4.18-21.07-2.28-32.6.22-1.32.44-2.63.64-3.92,2.57-16.47,1.67-31-2.68-43.1-5.31-14.8-16.09-26.08-28.83-30.17a.47.47,0,0,0-.61.33.51.51,0,0,0,.32.63c12.45,4,23,15.05,28.2,29.56,4.29,12,5.18,26.29,2.64,42.59-.21,1.29-.42,2.6-.64,3.91-1.94,11.73-3.94,23.85,2.44,33.35,6,8.9,17.13,11.76,28,13.93l19,3.78c10.28,2,20.78,4.73,26.27,13a20.45,20.45,0,0,1,1.65,19.05,19.38,19.38,0,0,1-14.9,11.39.5.5,0,0,0,0,1Z"/><path class="cls-17" d="M760.8,596.34a1,1,0,0,0,.69-.23c2.46-2.12,5.25-4.53,7-7.69,1.59-2.87,2.54-7.2.44-10.78-1.37-2.33-3.73-3.76-6.08-4.95a78.18,78.18,0,0,0-18-6.51c-4-.92-8.2-1.52-12.22-2.1a115.14,115.14,0,0,1-15.65-3c-6.1-1.76-17-6.24-21.23-16.51-3.46-8.3-1.53-17.23.52-26.68,1.66-7.65,3.37-15.58,2-23.28a1,1,0,0,0-1.14-.81,1,1,0,0,0-.79,1.17c1.28,7.3-.39,15-2,22.49-2,9.34-4.11,19-.41,27.9,4.6,11,16.07,15.8,22.5,17.66a117.69,117.69,0,0,0,15.91,3.05c4,.57,8.1,1.17,12.07,2.07A75.66,75.66,0,0,1,762,574.49c1.95,1,4.12,2.21,5.28,4.19,1.37,2.33,1.19,5.76-.46,8.74s-4.11,5-6.56,7.15a1,1,0,0,0-.12,1.42A.93.93,0,0,0,760.8,596.34Z"/><path class="cls-33" d="M478.57,500.08a2.42,2.42,0,0,1,4.48.48c2.17,7.83,7.44,21.48,18.48,26.33.56.25,1.08.49,1.59.74a5.62,5.62,0,0,0-.69-5.08c-3.43-5.24,2.77-12.41,2.77-12.41s.41,6.31,5.2,10.29c4.14,3.42,6.12,11,3.3,17.29-6,23.21-14.93,53.92,19.93,76.35s84-42.34,84-42.34L593.23,649s-37.62,27.75-81.37-11.28-14.75-95.82-14.75-95.82S463.74,528.43,478.57,500.08Z"/><path class="cls-34" d="M533.34,613.72c-10.25-6.61-16.74-13.92-20.66-21.54-7.87,3.1-16.25,3.26-24.83,2.91,2.23,14.32,8.8,29.43,23.49,42.55,44.21,39.49,82.21,11.41,82.21,11.41l24.63-78.17S568.57,636.41,533.34,613.72Z"/><path class="cls-35" d="M620.85,563.25c10.43-3.13,40.79-8.9,69.68,17.75a17.91,17.91,0,0,1,5.15,17.83c-7.76,28.56-25.38,122.29-7.44,158.8,0,0-22.71-.48-67.75-1.63,0,0-16.7-68.43-37-98-14-20.45,22.33-76.79,31.51-90.4A10.8,10.8,0,0,1,620.85,563.25Z"/><path class="cls-36" d="M649.64,506.51s15.43,43.62,16.59,62.87a33,33,0,0,1-33.11-5.33s-1.69-43.58-4.12-51.38Z"/><path class="cls-37" d="M628.22,447S587.88,503.48,612,519.88s52.84-23.73,52.84-23.73,9.36-30.9-.43-41.38S628.22,447,628.22,447Z"/><path class="cls-38" d="M646.89,433.53s-18.53,4.39-21.13,12.78,26.28,16.16,34.38,16.54l6.52,33.84s19.27-31.83,11.63-50.22S646.89,433.53,646.89,433.53Z"/><path class="cls-39" d="M657,492s15.7-18.18,21.94-6.33-14.13,20.76-21.19,14.94Z"/><path class="cls-40" d="M694.66,586.7s49.27,40.95,61.5,96.9-72,61.9-72,61.9-11.44-12.76-25-8.21S658.1,715,674,715.08s8.53,12.62,31,2.45c21.89-9.92,35.42-40.58-20.42-87.06a25.32,25.32,0,0,1-7.38-10C666.32,593.12,674.93,575.22,694.66,586.7Z"/><path class="cls-41" d="M756.15,683.41c-12.28-55.95-61.78-96.9-61.78-96.9-19.82-11.48-28.47,6.42-17.57,33.73a25.32,25.32,0,0,0,7.41,10c43.27,35.85,45.08,62.29,33.56,77.06a68.68,68.68,0,0,1,16.38,8c3.92,2.6,7.52,4.56,10.79,7.06C754.42,713.39,760,700.82,756.15,683.41Z"/><path class="cls-42" d="M22.62,130,93.06,307.12a21,21,0,0,0,22.48,13l184.71-12.93L233.72,118.13a11.78,11.78,0,0,0-11.27-7.59c-32.38.75-150.33,3.66-192.53,7.42A8.74,8.74,0,0,0,22.62,130Z"/><path class="cls-5" d="M109.32,312.09,39,133.36A5.57,5.57,0,0,1,44,125.75L218,119.15a10.55,10.55,0,0,1,10.22,6.68l63.7,174.24Z"/><path class="cls-43" d="M363.06,314.37a6,6,0,0,1-6,6H114.16a9.09,9.09,0,0,1-9.09-9.09l-3.82-4.44,252.23-2.16a9.72,9.72,0,0,1,9.58,9.71Z"/><path class="cls-44" d="M247.5,35.33S257.6-10,205.71,2c0,0-25.2-4.12-26.48,19.66,0,0-16.24,10.7-4.35,31.28,0,0-48.26-18.64-69.28,23.66s-1.7,65.58,18.56,71.64c0,0-16.42,8.24-8.65,26.85s47.13,31.73,70.37,9.1c0,0,66.14,8.74,64.82-38,0,0,30.76-19.87-1.55-58.48S247.5,35.33,247.5,35.33Z"/><path class="cls-45" d="M250.71,128.52c-9.63-3.06-37.72-8.87-64.92,15.43a16.58,16.58,0,0,0-5,16.46c6.77,26.62,20.51,111.86,3.31,145.47,0,0,5.39,0,65.25.63,0,0,15.38-62.38,34.64-89.56,13.29-18.76-19.57-71.59-27.89-84.35A10,10,0,0,0,250.71,128.52Z"/><path class="cls-46" d="M224.84,75.44s-15,40.25-16.33,58.09a30.61,30.61,0,0,0,30.8-4.45s2.21-40.41,4.59-47.62Z"/><path class="cls-47" d="M245.6,20.56s36.59,53,14,67.84S210.9,65.6,210.9,65.6s-8.22-28.81,1-38.39S245.6,20.56,245.6,20.56Z"/><path class="cls-48" d="M228.48,7.76s17.13,4.35,19.41,12.17-24.62,14.61-32.14,14.84l-6.55,31.3s-17.41-29.83-10-46.77S228.48,7.76,228.48,7.76Z"/><path class="cls-49" d="M218.22,61.86s-14.3-17.1-20.27-6.2,12.8,19.47,19.44,14.18Z"/><path class="cls-50" d="M181.87,149.18s-46.34,37.26-58.52,89,65.89,58.51,65.89,58.51S200,285,212.56,289.45s1.31-20.67-13.43-20.84-8.1,11.59-28.79,1.81c-20.16-9.52-32.26-38.18,20.25-80.47a23.4,23.4,0,0,0,7-9.21C208.06,155.56,200.35,138.82,181.87,149.18Z"/><path class="cls-51" d="M319.57,71.45l-29.29-2.52A1.85,1.85,0,0,0,288.59,72l22.35,24.44Z"/><path class="cls-52" d="M525.39,166.66H319.31a10,10,0,0,1-10-10V81.49a10,10,0,0,1,10.3-10L525.65,76.8a10.05,10.05,0,0,1,9.78,10v69.78A10,10,0,0,1,525.39,166.66Z"/><path class="cls-3" d="M518.85,162H324.61c-5.23,0-9.46-3.93-9.46-8.79V87.36c0-5,4.39-8.92,9.71-8.8l194.23,4.69c5.13.13,9.22,4,9.22,8.8v61.11C528.31,158,524.07,162,518.85,162Z"/><rect class="cls-53" x="332.26" y="93.98" width="178.01" height="5.29" rx="2.25"/><rect class="cls-53" x="332.26" y="144.95" width="178.01" height="5.29" rx="2.25"/><rect class="cls-53" x="332.26" y="128.48" width="121.16" height="5.29" rx="2.25"/><rect class="cls-53" x="332.26" y="111.41" width="75.68" height="5.29" rx="2.25"/><rect class="cls-53" x="460.48" y="128.48" width="49.8" height="5.29" rx="2.25"/><rect class="cls-53" x="418.52" y="111.41" width="91.75" height="5.29" rx="2.25"/><g class="cls-54"><path class="cls-17" d="M428,190a1.77,1.77,0,0,1-1.58-1.76c0-2,.1-4,.28-6a1.77,1.77,0,0,1,1.91-1.61h0a1.77,1.77,0,0,1,1.57,1.91c-.17,1.9-.26,3.82-.26,5.72a1.78,1.78,0,0,1-1.78,1.76Zm1.76-15.29-.21,0a1.77,1.77,0,0,1-1.32-2.12c.44-1.95,1-3.91,1.59-5.81a1.76,1.76,0,0,1,3.36,1.08c-.58,1.81-1.08,3.67-1.51,5.52A1.77,1.77,0,0,1,429.72,174.73Zm5.09-14.53a1.78,1.78,0,0,1-1.4-2.53c.86-1.8,1.82-3.59,2.84-5.31a1.77,1.77,0,1,1,3,1.81c-1,1.63-1.88,3.33-2.7,5A1.77,1.77,0,0,1,434.81,160.2Zm8.21-13a1.73,1.73,0,0,1-.92-.38,1.76,1.76,0,0,1-.27-2.48c1.25-1.56,2.58-3.09,4-4.54a1.77,1.77,0,1,1,2.56,2.44c-1.31,1.37-2.57,2.82-3.76,4.31A1.77,1.77,0,0,1,443,147.17Zm10.9-10.87a1.77,1.77,0,0,1-.91-3.14c1.57-1.24,3.2-2.44,4.87-3.55a1.77,1.77,0,0,1,2,2.95c-1.58,1.05-3.14,2.19-4.63,3.37A1.75,1.75,0,0,1,453.92,136.3Zm13-8.18a1.78,1.78,0,0,1-1.4-1,1.76,1.76,0,0,1,.82-2.36c1.81-.87,3.67-1.67,5.54-2.39a1.77,1.77,0,0,1,1.26,3.31c-1.78.68-3.55,1.44-5.26,2.26A1.8,1.8,0,0,1,467,128.12Zm64.84,2.75a1.76,1.76,0,0,1-.71-.24c-1.63-1-3.33-1.87-5.05-2.69a1.77,1.77,0,0,1,1.53-3.19c1.81.87,3.6,1.82,5.32,2.84a1.77,1.77,0,0,1-1.09,3.28ZM481.48,123a1.77,1.77,0,0,1-.2-3.48c2-.45,3.94-.81,5.92-1.09a1.77,1.77,0,1,1,.49,3.5c-1.88.26-3.77.61-5.62,1A1.7,1.7,0,0,1,481.48,123Zm36.27,1.55a2.17,2.17,0,0,1-.35-.07c-1.81-.58-3.67-1.08-5.52-1.5a1.77,1.77,0,1,1,.78-3.45c2,.44,3.91,1,5.81,1.58a1.77,1.77,0,0,1-.72,3.44Zm-21-3.27a1.76,1.76,0,0,1,.19-3.52c2,0,4,.09,6,.26h0a1.77,1.77,0,0,1-.35,3.52c-1.89-.16-3.82-.25-5.72-.25Z"/><path class="cls-17" d="M541.87,138.13a1.74,1.74,0,0,1-1-.43c-.69-.59-1.4-1.19-2.11-1.76a1.76,1.76,0,1,1,2.2-2.76c.76.6,1.5,1.23,2.23,1.85a1.77,1.77,0,0,1-1.35,3.1Z"/></g><g class="cls-54"><path class="cls-17" d="M565.53,186.53a1.75,1.75,0,0,1-1.57-1.66c-.05-.91-.12-1.84-.2-2.75a1.77,1.77,0,0,1,3.52-.33c.09,1,.16,1.94.21,2.9a1.77,1.77,0,0,1-1.68,1.85A1.31,1.31,0,0,1,565.53,186.53Z"/><path class="cls-17" d="M489.49,258.57q-1.22-.12-2.43-.3a1.77,1.77,0,1,1,.5-3.5c1.87.27,3.75.46,5.6.56a1.77,1.77,0,0,1-.2,3.53C491.81,258.8,490.64,258.7,489.49,258.57Zm-11.56-2.24a1.5,1.5,0,0,1-.29-.06c-1.9-.53-3.8-1.16-5.64-1.85a1.77,1.77,0,0,1,1.25-3.31c1.75.66,3.55,1.25,5.35,1.76a1.77,1.77,0,0,1-.67,3.46Zm24.33,2.43a1.77,1.77,0,0,1,.05-3.52c1.86-.15,3.74-.37,5.59-.68a1.77,1.77,0,1,1,.57,3.49c-1.94.32-3.92.56-5.88.71Zm-38.36-8.15a1.8,1.8,0,0,1-.66-.2c-1.73-.94-3.44-2-5.08-3a1.77,1.77,0,1,1,1.94-3c1.56,1,3.19,2,4.83,2.89a1.77,1.77,0,0,1,.71,2.4A1.75,1.75,0,0,1,463.9,250.61Zm53.23,5.29a1.76,1.76,0,0,1-.34-3.44c1.78-.55,3.57-1.19,5.3-1.89a1.77,1.77,0,1,1,1.33,3.27c-1.83.74-3.7,1.41-5.58,2A1.58,1.58,0,0,1,517.13,255.9ZM531,249.85a1.73,1.73,0,0,1-1.34-.87,1.77,1.77,0,0,1,.65-2.42c1.62-.93,3.23-1.94,4.76-3a1.77,1.77,0,0,1,2,2.91c-1.62,1.12-3.3,2.18-5,3.16A1.78,1.78,0,0,1,531,249.85Zm12.23-8.93a1.73,1.73,0,0,1-1.11-.56,1.77,1.77,0,0,1,.11-2.5c1.39-1.26,2.73-2.6,4-4a1.77,1.77,0,1,1,2.59,2.4c-1.33,1.44-2.75,2.85-4.2,4.18A1.77,1.77,0,0,1,543.24,240.92Zm10-11.38a1.91,1.91,0,0,1-.82-.31,1.77,1.77,0,0,1-.44-2.46c1.07-1.54,2.09-3.14,3-4.75a1.77,1.77,0,1,1,3.06,1.77c-1,1.7-2.06,3.38-3.19,5A1.78,1.78,0,0,1,553.24,229.54Zm7.25-13.31a1.72,1.72,0,0,1-.48-.13,1.76,1.76,0,0,1-1-2.3c.7-1.73,1.34-3.51,1.9-5.3a1.77,1.77,0,0,1,3.38,1.06c-.59,1.88-1.27,3.76-2,5.58A1.79,1.79,0,0,1,560.49,216.23Zm4.15-14.57-.11,0a1.76,1.76,0,0,1-1.44-2c.23-1.36.42-2.74.57-4.11.05-.5.1-1,.14-1.48a1.76,1.76,0,0,1,1.91-1.61,1.74,1.74,0,0,1,1.61,1.91q-.06.78-.15,1.56c-.15,1.44-.35,2.89-.6,4.32A1.77,1.77,0,0,1,564.64,201.66Z"/><path class="cls-17" d="M451.44,241.91a1.72,1.72,0,0,1-1-.42c-.72-.63-1.44-1.29-2.14-2a1.77,1.77,0,0,1,2.44-2.56c.67.64,1.35,1.26,2,1.86a1.76,1.76,0,0,1-1.35,3.08Z"/></g><path class="cls-17" d="M456,221.79a.82.82,0,0,0,.9.35l9.75-2.44a43.6,43.6,0,0,0,11.7,8l1.24,10a.81.81,0,0,0,.65.7l11.8,2.5a.83.83,0,0,0,.88-.39l5.16-8.61A43.83,43.83,0,0,0,512,229.29l7.93,6.18a.83.83,0,0,0,1,0L531,228.93a.84.84,0,0,0,.35-.89l-2.44-9.76a43.91,43.91,0,0,0,8-11.69l10-1.24a.84.84,0,0,0,.71-.65l2.49-11.8a.81.81,0,0,0-.38-.88l-8.61-5.17a43.88,43.88,0,0,0-2.61-13.95l6.18-7.93a.84.84,0,0,0,0-1l-6.58-10.1a.82.82,0,0,0-.9-.35L527.52,156a43.6,43.6,0,0,0-11.7-8l-1.24-10a.83.83,0,0,0-.65-.71l-11.8-2.49a.82.82,0,0,0-.87.38l-5.17,8.62a43.61,43.61,0,0,0-13.95,2.61l-7.93-6.18a.83.83,0,0,0-1,0l-10.11,6.58a.84.84,0,0,0-.35.89l2.44,9.75a44,44,0,0,0-8,11.7l-10,1.24a.84.84,0,0,0-.71.65L444,182.8a.82.82,0,0,0,.38.88l8.62,5.17a43.49,43.49,0,0,0,2.6,13.94l-6.17,7.94a.81.81,0,0,0-.05,1Z"/><path class="cls-3" d="M495.78,199.9a12.13,12.13,0,1,1,1.78.06A13.13,13.13,0,0,1,495.78,199.9Zm2.32-21.29a9,9,0,0,0-1.38-.05,9.32,9.32,0,1,0,1.38.05Z"/><path class="cls-3" d="M494.15,217.33c-1-.11-2-.27-3-.48h0c-.32-.06-.64-.14-.95-.21a29.72,29.72,0,0,1-4.53-1.51l-.06,0-.17-.07-.33-.15a.69.69,0,0,1-.41-.72.54.54,0,0,1,.05-.21.71.71,0,0,1,.94-.36,28.4,28.4,0,0,0,31.91-6.06,28.14,28.14,0,0,0,7.48-14,26.12,26.12,0,0,0,.46-2.88,28.39,28.39,0,1,0-55.09,6.24.63.63,0,0,1,0,.3.71.71,0,0,1-1.37.16,29.71,29.71,0,0,1-1.45-12.86c.11-1,.27-2,.48-3a29.81,29.81,0,0,1,58.8,9.3c-.11,1-.27,2-.48,3a29.8,29.8,0,0,1-32.3,23.48Z"/><g class="cls-54"><path class="cls-17" d="M363,229.87a1.11,1.11,0,0,1-1-.9c-.16-.91-.3-1.84-.41-2.76a1.08,1.08,0,0,1,.95-1.21,1.1,1.1,0,0,1,1.22.95c.1.88.23,1.77.39,2.64a1.1,1.1,0,0,1-.88,1.27A1.63,1.63,0,0,1,363,229.87Z"/><path class="cls-17" d="M362.28,221.5a1.09,1.09,0,0,1-1-1.09c0-1.6.1-3.21.27-4.8l.12-1a1.12,1.12,0,0,1,1.22-.94,1.09,1.09,0,0,1,.95,1.22c-.05.32-.08.64-.12,1-.16,1.51-.25,3.05-.26,4.57a1.09,1.09,0,0,1-1.09,1.09Zm1.46-11.24a.76.76,0,0,1-.16,0,1.1,1.1,0,0,1-.79-1.33,48.77,48.77,0,0,1,1.78-5.53,1.1,1.1,0,0,1,2,.8,46.22,46.22,0,0,0-1.7,5.27A1.09,1.09,0,0,1,363.74,210.26Zm4.13-10.55a1.17,1.17,0,0,1-.4-.13,1.09,1.09,0,0,1-.44-1.48,46.74,46.74,0,0,1,3.09-4.93,1.09,1.09,0,0,1,1.52-.25,1.1,1.1,0,0,1,.25,1.53,46.59,46.59,0,0,0-2.94,4.69A1.11,1.11,0,0,1,367.87,199.71Zm6.6-9.22a1,1,0,0,1-.62-.28,1.09,1.09,0,0,1-.06-1.54,45.55,45.55,0,0,1,4.2-4,1.08,1.08,0,0,1,1.53.13,1.09,1.09,0,0,1-.12,1.54,42.63,42.63,0,0,0-4,3.83A1.07,1.07,0,0,1,374.47,190.49Zm8.66-7.32a1.07,1.07,0,0,1-.8-.48,1.1,1.1,0,0,1,.31-1.52,49.32,49.32,0,0,1,5.05-2.87,1.09,1.09,0,0,1,1.46.49,1.1,1.1,0,0,1-.5,1.47,44.8,44.8,0,0,0-4.81,2.74A1.08,1.08,0,0,1,383.13,183.17Zm10.16-5a1.07,1.07,0,0,1-.91-.72,1.09,1.09,0,0,1,.67-1.39,45.45,45.45,0,0,1,5.59-1.56,1.09,1.09,0,1,1,.46,2.13,46.79,46.79,0,0,0-5.33,1.49A1,1,0,0,1,393.29,178.17Zm11.08-2.36a1.09,1.09,0,0,1,0-2.17,48.91,48.91,0,0,1,5.81-.14,1.1,1.1,0,0,1,1.05,1.13,1.08,1.08,0,0,1-1.13,1.05,44.47,44.47,0,0,0-5.54.14Zm16.86,1.68-.19,0a45.64,45.64,0,0,0-4.69-1.09l-.71-.12a1.1,1.1,0,0,1-.91-1.25,1.09,1.09,0,0,1,1.25-.91l.76.13a48,48,0,0,1,4.91,1.15,1.1,1.1,0,0,1,.75,1.35A1.09,1.09,0,0,1,421.23,177.49Z"/></g><g class="cls-54"><path class="cls-17" d="M404.05,267.56a1.09,1.09,0,0,1,.22-2.17,45.05,45.05,0,0,0,5.45.18,1.11,1.11,0,0,1,1.12,1.06,1.09,1.09,0,0,1-1.07,1.12,47.44,47.44,0,0,1-5.71-.19Zm-5.52-.86-.12,0a46.37,46.37,0,0,1-5.5-1.55,1.09,1.09,0,1,1,.72-2.06,47.54,47.54,0,0,0,5.25,1.48,1.09,1.09,0,0,1-.35,2.15Zm16.66.56a1.08,1.08,0,0,1-1-.92,1.1,1.1,0,0,1,.91-1.25,46.06,46.06,0,0,0,5.34-1.13,1.09,1.09,0,1,1,.58,2.1,46.3,46.3,0,0,1-5.59,1.19A.89.89,0,0,1,415.19,267.26ZM388,263a1.27,1.27,0,0,1-.37-.1,47.76,47.76,0,0,1-5-2.84,1.09,1.09,0,1,1,1.19-1.82,45.22,45.22,0,0,0,4.74,2.7A1.09,1.09,0,0,1,388,263Zm37.93,1.24a1.09,1.09,0,0,1-.9-.66,1.1,1.1,0,0,1,.59-1.43,44.5,44.5,0,0,0,4.91-2.39,1.09,1.09,0,0,1,1.07,1.9,47.84,47.84,0,0,1-5.14,2.51A1.08,1.08,0,0,1,425.93,264.27Zm9.7-5.47a1.09,1.09,0,0,1-.53-2,45.58,45.58,0,0,0,4.19-3.49,1.09,1.09,0,1,1,1.5,1.58,46.52,46.52,0,0,1-4.39,3.66A1.08,1.08,0,0,1,435.63,258.8Zm8.12-7.64a1.1,1.1,0,0,1-.72-1.79,43.08,43.08,0,0,0,3.23-4.39,1.09,1.09,0,1,1,1.84,1.18,46.29,46.29,0,0,1-3.39,4.61A1.1,1.1,0,0,1,443.75,251.16Z"/><path class="cls-17" d="M378.63,256.9a1.12,1.12,0,0,1-.59-.26c-.71-.6-1.41-1.23-2.08-1.86a1.09,1.09,0,0,1,1.51-1.58c.63.6,1.3,1.2,2,1.78a1.09,1.09,0,0,1,.13,1.54A1.13,1.13,0,0,1,378.63,256.9Z"/></g><path class="cls-17" d="M381,243a.55.55,0,0,0,.6.24l6.52-1.63A29.28,29.28,0,0,0,396,247l.83,6.67a.56.56,0,0,0,.44.47l7.89,1.67a.54.54,0,0,0,.59-.26l3.46-5.76a29.23,29.23,0,0,0,9.33-1.75l5.31,4.14a.56.56,0,0,0,.64,0l6.76-4.4a.57.57,0,0,0,.24-.6l-1.64-6.52a29.05,29.05,0,0,0,5.37-7.83l6.68-.83a.55.55,0,0,0,.47-.43l1.67-7.9a.56.56,0,0,0-.26-.59L438,219.59a29.28,29.28,0,0,0-1.75-9.33l4.13-5.31a.54.54,0,0,0,0-.64l-4.4-6.76a.55.55,0,0,0-.6-.23L428.9,199a29.44,29.44,0,0,0-7.83-5.37l-.83-6.67a.56.56,0,0,0-.44-.48l-7.89-1.67a.57.57,0,0,0-.59.26l-3.46,5.77a29.22,29.22,0,0,0-9.33,1.74l-5.31-4.13a.54.54,0,0,0-.64,0l-6.76,4.4a.57.57,0,0,0-.24.6l1.64,6.53a29.42,29.42,0,0,0-5.38,7.82l-6.67.83a.56.56,0,0,0-.47.44L373,216.88a.56.56,0,0,0,.26.59l5.76,3.46a29.23,29.23,0,0,0,1.75,9.33l-4.14,5.31a.56.56,0,0,0,0,.64Z"/><path class="cls-3" d="M407.63,228.47a8.3,8.3,0,1,1,1.22,0A8.22,8.22,0,0,1,407.63,228.47Zm1.55-14.25a6.56,6.56,0,0,0-.89,0,6.08,6.08,0,0,0-5.83,6.31,6.08,6.08,0,0,0,6.31,5.83h0a6.06,6.06,0,0,0,5.83-6.3A6.09,6.09,0,0,0,409.18,214.22Z"/><path class="cls-3" d="M406.48,240.6a18.55,18.55,0,0,1-2.07-.33,19.93,19.93,0,0,1-4-1.27l-.17-.08a1.09,1.09,0,0,1-.64-1.11,1,1,0,0,1,.09-.33,1.1,1.1,0,0,1,1.44-.55,18.59,18.59,0,0,0,3.72,1.21h0l.21,0a18.31,18.31,0,0,0,13.48-2.53l0,0,.1-.07a18.27,18.27,0,0,0,8-11.6,17.27,17.27,0,0,0,.29-1.87,18.38,18.38,0,0,0-36.26-5.73c-.13.61-.22,1.22-.29,1.84a18.25,18.25,0,0,0,.89,7.93,1.1,1.1,0,0,1,.05.47,1.09,1.09,0,0,1-2.11.24,20.41,20.41,0,0,1-1-8.87,18,18,0,0,1,.33-2.06,20.56,20.56,0,0,1,40.57,6.41c-.08.7-.19,1.39-.34,2.09A20.59,20.59,0,0,1,406.48,240.6Z"/></g></g></svg>